<svg width="1363" height="163" viewBox="0 0 1363 163" fill="none" xmlns="http://www.w3.org/2000/svg">
<path d="M0 15C0 6.71573 6.71573 0 15 0H37V163H15C6.71573 163 0 156.284 0 148V15Z" fill="#424242"/>
<rect width="1097" height="163" transform="translate(37)" fill="#F0F0F0"/>
<path d="M101.906 53.9219L94.3945 51.2383V48.0859L104.602 52.375V54.6367L101.906 53.9219ZM94.3945 56.1719L101.918 53.4297L104.602 52.7852V55.0352L94.3945 59.3242V56.1719ZM121.781 56.5352C121.781 56.2305 121.734 55.957 121.641 55.7148C121.555 55.4648 121.391 55.2383 121.148 55.0352C120.906 54.8242 120.566 54.6172 120.129 54.4141C119.691 54.2109 119.125 54 118.43 53.7812C117.656 53.5312 116.922 53.25 116.227 52.9375C115.539 52.625 114.93 52.2617 114.398 51.8477C113.875 51.4258 113.461 50.9375 113.156 50.3828C112.859 49.8281 112.711 49.1836 112.711 48.4492C112.711 47.7383 112.867 47.0938 113.18 46.5156C113.492 45.9297 113.93 45.4297 114.492 45.0156C115.055 44.5938 115.719 44.2695 116.484 44.043C117.258 43.8164 118.105 43.7031 119.027 43.7031C120.285 43.7031 121.383 43.9297 122.32 44.3828C123.258 44.8359 123.984 45.457 124.5 46.2461C125.023 47.0352 125.285 47.9375 125.285 48.9531H121.793C121.793 48.4531 121.688 48.0156 121.477 47.6406C121.273 47.2578 120.961 46.957 120.539 46.7383C120.125 46.5195 119.602 46.4102 118.969 46.4102C118.359 46.4102 117.852 46.5039 117.445 46.6914C117.039 46.8711 116.734 47.1172 116.531 47.4297C116.328 47.7344 116.227 48.0781 116.227 48.4609C116.227 48.75 116.297 49.0117 116.438 49.2461C116.586 49.4805 116.805 49.6992 117.094 49.9023C117.383 50.1055 117.738 50.2969 118.16 50.4766C118.582 50.6562 119.07 50.832 119.625 51.0039C120.555 51.2852 121.371 51.6016 122.074 51.9531C122.785 52.3047 123.379 52.6992 123.855 53.1367C124.332 53.5742 124.691 54.0703 124.934 54.625C125.176 55.1797 125.297 55.8086 125.297 56.5117C125.297 57.2539 125.152 57.918 124.863 58.5039C124.574 59.0898 124.156 59.5859 123.609 59.9922C123.062 60.3984 122.41 60.707 121.652 60.918C120.895 61.1289 120.047 61.2344 119.109 61.2344C118.266 61.2344 117.434 61.125 116.613 60.9062C115.793 60.6797 115.047 60.3398 114.375 59.8867C113.711 59.4336 113.18 58.8555 112.781 58.1523C112.383 57.4492 112.184 56.6172 112.184 55.6562H115.711C115.711 56.1875 115.793 56.6367 115.957 57.0039C116.121 57.3711 116.352 57.668 116.648 57.8945C116.953 58.1211 117.312 58.2852 117.727 58.3867C118.148 58.4883 118.609 58.5391 119.109 58.5391C119.719 58.5391 120.219 58.4531 120.609 58.2812C121.008 58.1094 121.301 57.8711 121.488 57.5664C121.684 57.2617 121.781 56.918 121.781 56.5352ZM131.039 48.3203V61H127.652V48.3203H131.039ZM127.441 45.0156C127.441 44.5234 127.613 44.1172 127.957 43.7969C128.301 43.4766 128.762 43.3164 129.34 43.3164C129.91 43.3164 130.367 43.4766 130.711 43.7969C131.062 44.1172 131.238 44.5234 131.238 45.0156C131.238 45.5078 131.062 45.9141 130.711 46.2344C130.367 46.5547 129.91 46.7148 129.34 46.7148C128.762 46.7148 128.301 46.5547 127.957 46.2344C127.613 45.9141 127.441 45.5078 127.441 45.0156ZM141.855 48.3203H144.914V60.5781C144.914 61.7344 144.656 62.7148 144.141 63.5195C143.633 64.332 142.922 64.9453 142.008 65.3594C141.094 65.7812 140.031 65.9922 138.82 65.9922C138.289 65.9922 137.727 65.9219 137.133 65.7812C136.547 65.6406 135.984 65.4219 135.445 65.125C134.914 64.8281 134.469 64.4531 134.109 64L135.598 62.0078C135.988 62.4609 136.441 62.8125 136.957 63.0625C137.473 63.3203 138.043 63.4492 138.668 63.4492C139.277 63.4492 139.793 63.3359 140.215 63.1094C140.637 62.8906 140.961 62.5664 141.188 62.1367C141.414 61.7148 141.527 61.2031 141.527 60.6016V51.25L141.855 48.3203ZM133.324 54.8125V54.5664C133.324 53.5977 133.441 52.7188 133.676 51.9297C133.918 51.1328 134.258 50.4492 134.695 49.8789C135.141 49.3086 135.68 48.8672 136.312 48.5547C136.945 48.2422 137.66 48.0859 138.457 48.0859C139.301 48.0859 140.008 48.2422 140.578 48.5547C141.148 48.8672 141.617 49.3125 141.984 49.8906C142.352 50.4609 142.637 51.1367 142.84 51.918C143.051 52.6914 143.215 53.5391 143.332 54.4609V55C143.215 55.8828 143.039 56.7031 142.805 57.4609C142.57 58.2188 142.262 58.8828 141.879 59.4531C141.496 60.0156 141.02 60.4531 140.449 60.7656C139.887 61.0781 139.215 61.2344 138.434 61.2344C137.652 61.2344 136.945 61.0742 136.312 60.7539C135.688 60.4336 135.152 59.9844 134.707 59.4062C134.262 58.8281 133.918 58.1484 133.676 57.3672C133.441 56.5859 133.324 55.7344 133.324 54.8125ZM136.699 54.5664V54.8125C136.699 55.3359 136.75 55.8242 136.852 56.2773C136.953 56.7305 137.109 57.1328 137.32 57.4844C137.539 57.8281 137.809 58.0977 138.129 58.293C138.457 58.4805 138.844 58.5742 139.289 58.5742C139.906 58.5742 140.41 58.4453 140.801 58.1875C141.191 57.9219 141.484 57.5586 141.68 57.0977C141.875 56.6367 141.988 56.1055 142.02 55.5039V53.9688C142.004 53.4766 141.938 53.0352 141.82 52.6445C141.703 52.2461 141.539 51.9062 141.328 51.625C141.117 51.3438 140.844 51.125 140.508 50.9688C140.172 50.8125 139.773 50.7344 139.312 50.7344C138.867 50.7344 138.48 50.8359 138.152 51.0391C137.832 51.2344 137.562 51.5039 137.344 51.8477C137.133 52.1914 136.973 52.5977 136.863 53.0664C136.754 53.5273 136.699 54.0273 136.699 54.5664ZM150.844 51.0273V61H147.469V48.3203H150.633L150.844 51.0273ZM150.352 54.2148H149.438C149.438 53.2773 149.559 52.4336 149.801 51.6836C150.043 50.9258 150.383 50.2812 150.82 49.75C151.258 49.2109 151.777 48.8008 152.379 48.5195C152.988 48.2305 153.668 48.0859 154.418 48.0859C155.012 48.0859 155.555 48.1719 156.047 48.3438C156.539 48.5156 156.961 48.7891 157.312 49.1641C157.672 49.5391 157.945 50.0352 158.133 50.6523C158.328 51.2695 158.426 52.0234 158.426 52.9141V61H155.027V52.9023C155.027 52.3398 154.949 51.9023 154.793 51.5898C154.637 51.2773 154.406 51.0586 154.102 50.9336C153.805 50.8008 153.438 50.7344 153 50.7344C152.547 50.7344 152.152 50.8242 151.816 51.0039C151.488 51.1836 151.215 51.4336 150.996 51.7539C150.785 52.0664 150.625 52.4336 150.516 52.8555C150.406 53.2773 150.352 53.7305 150.352 54.2148ZM178.148 58.2578V61H169.559V58.2578H178.148ZM170.695 43.9375V61H167.18V43.9375H170.695ZM186.797 58.1406V52.4922C186.797 52.0859 186.73 51.7383 186.598 51.4492C186.465 51.1523 186.258 50.9219 185.977 50.7578C185.703 50.5938 185.348 50.5117 184.91 50.5117C184.535 50.5117 184.211 50.5781 183.938 50.7109C183.664 50.8359 183.453 51.0195 183.305 51.2617C183.156 51.4961 183.082 51.7734 183.082 52.0938H179.707C179.707 51.5547 179.832 51.043 180.082 50.5586C180.332 50.0742 180.695 49.6484 181.172 49.2812C181.648 48.9062 182.215 48.6133 182.871 48.4023C183.535 48.1914 184.277 48.0859 185.098 48.0859C186.082 48.0859 186.957 48.25 187.723 48.5781C188.488 48.9062 189.09 49.3984 189.527 50.0547C189.973 50.7109 190.195 51.5312 190.195 52.5156V57.9414C190.195 58.6367 190.238 59.207 190.324 59.6523C190.41 60.0898 190.535 60.4727 190.699 60.8008V61H187.289C187.125 60.6562 187 60.2266 186.914 59.7109C186.836 59.1875 186.797 58.6641 186.797 58.1406ZM187.242 53.2773L187.266 55.1875H185.379C184.934 55.1875 184.547 55.2383 184.219 55.3398C183.891 55.4414 183.621 55.5859 183.41 55.7734C183.199 55.9531 183.043 56.1641 182.941 56.4062C182.848 56.6484 182.801 56.9141 182.801 57.2031C182.801 57.4922 182.867 57.7539 183 57.9883C183.133 58.2148 183.324 58.3945 183.574 58.5273C183.824 58.6523 184.117 58.7148 184.453 58.7148C184.961 58.7148 185.402 58.6133 185.777 58.4102C186.152 58.207 186.441 57.957 186.645 57.6602C186.855 57.3633 186.965 57.082 186.973 56.8164L187.863 58.2461C187.738 58.5664 187.566 58.8984 187.348 59.2422C187.137 59.5859 186.867 59.9102 186.539 60.2148C186.211 60.5117 185.816 60.7578 185.355 60.9531C184.895 61.1406 184.348 61.2344 183.715 61.2344C182.91 61.2344 182.18 61.0742 181.523 60.7539C180.875 60.4258 180.359 59.9766 179.977 59.4062C179.602 58.8281 179.414 58.1719 179.414 57.4375C179.414 56.7734 179.539 56.1836 179.789 55.668C180.039 55.1523 180.406 54.7188 180.891 54.3672C181.383 54.0078 181.996 53.7383 182.73 53.5586C183.465 53.3711 184.316 53.2773 185.285 53.2773H187.242ZM196.102 51.0273V61H192.727V48.3203H195.891L196.102 51.0273ZM195.609 54.2148H194.695C194.695 53.2773 194.816 52.4336 195.059 51.6836C195.301 50.9258 195.641 50.2812 196.078 49.75C196.516 49.2109 197.035 48.8008 197.637 48.5195C198.246 48.2305 198.926 48.0859 199.676 48.0859C200.27 48.0859 200.812 48.1719 201.305 48.3438C201.797 48.5156 202.219 48.7891 202.57 49.1641C202.93 49.5391 203.203 50.0352 203.391 50.6523C203.586 51.2695 203.684 52.0234 203.684 52.9141V61H200.285V52.9023C200.285 52.3398 200.207 51.9023 200.051 51.5898C199.895 51.2773 199.664 51.0586 199.359 50.9336C199.062 50.8008 198.695 50.7344 198.258 50.7344C197.805 50.7344 197.41 50.8242 197.074 51.0039C196.746 51.1836 196.473 51.4336 196.254 51.7539C196.043 52.0664 195.883 52.4336 195.773 52.8555C195.664 53.2773 195.609 53.7305 195.609 54.2148ZM214.277 48.3203H217.336V60.5781C217.336 61.7344 217.078 62.7148 216.562 63.5195C216.055 64.332 215.344 64.9453 214.43 65.3594C213.516 65.7812 212.453 65.9922 211.242 65.9922C210.711 65.9922 210.148 65.9219 209.555 65.7812C208.969 65.6406 208.406 65.4219 207.867 65.125C207.336 64.8281 206.891 64.4531 206.531 64L208.02 62.0078C208.41 62.4609 208.863 62.8125 209.379 63.0625C209.895 63.3203 210.465 63.4492 211.09 63.4492C211.699 63.4492 212.215 63.3359 212.637 63.1094C213.059 62.8906 213.383 62.5664 213.609 62.1367C213.836 61.7148 213.949 61.2031 213.949 60.6016V51.25L214.277 48.3203ZM205.746 54.8125V54.5664C205.746 53.5977 205.863 52.7188 206.098 51.9297C206.34 51.1328 206.68 50.4492 207.117 49.8789C207.562 49.3086 208.102 48.8672 208.734 48.5547C209.367 48.2422 210.082 48.0859 210.879 48.0859C211.723 48.0859 212.43 48.2422 213 48.5547C213.57 48.8672 214.039 49.3125 214.406 49.8906C214.773 50.4609 215.059 51.1367 215.262 51.918C215.473 52.6914 215.637 53.5391 215.754 54.4609V55C215.637 55.8828 215.461 56.7031 215.227 57.4609C214.992 58.2188 214.684 58.8828 214.301 59.4531C213.918 60.0156 213.441 60.4531 212.871 60.7656C212.309 61.0781 211.637 61.2344 210.855 61.2344C210.074 61.2344 209.367 61.0742 208.734 60.7539C208.109 60.4336 207.574 59.9844 207.129 59.4062C206.684 58.8281 206.34 58.1484 206.098 57.3672C205.863 56.5859 205.746 55.7344 205.746 54.8125ZM209.121 54.5664V54.8125C209.121 55.3359 209.172 55.8242 209.273 56.2773C209.375 56.7305 209.531 57.1328 209.742 57.4844C209.961 57.8281 210.23 58.0977 210.551 58.293C210.879 58.4805 211.266 58.5742 211.711 58.5742C212.328 58.5742 212.832 58.4453 213.223 58.1875C213.613 57.9219 213.906 57.5586 214.102 57.0977C214.297 56.6367 214.41 56.1055 214.441 55.5039V53.9688C214.426 53.4766 214.359 53.0352 214.242 52.6445C214.125 52.2461 213.961 51.9062 213.75 51.625C213.539 51.3438 213.266 51.125 212.93 50.9688C212.594 50.8125 212.195 50.7344 211.734 50.7344C211.289 50.7344 210.902 50.8359 210.574 51.0391C210.254 51.2344 209.984 51.5039 209.766 51.8477C209.555 52.1914 209.395 52.5977 209.285 53.0664C209.176 53.5273 209.121 54.0273 209.121 54.5664ZM227.461 57.9648V48.3203H230.836V61H227.66L227.461 57.9648ZM227.836 55.3633L228.832 55.3398C228.832 56.1836 228.734 56.9688 228.539 57.6953C228.344 58.4141 228.051 59.0391 227.66 59.5703C227.27 60.0938 226.777 60.5039 226.184 60.8008C225.59 61.0898 224.891 61.2344 224.086 61.2344C223.469 61.2344 222.898 61.1484 222.375 60.9766C221.859 60.7969 221.414 60.5195 221.039 60.1445C220.672 59.7617 220.383 59.2734 220.172 58.6797C219.969 58.0781 219.867 57.3555 219.867 56.5117V48.3203H223.242V56.5352C223.242 56.9102 223.285 57.2266 223.371 57.4844C223.465 57.7422 223.594 57.9531 223.758 58.1172C223.922 58.2812 224.113 58.3984 224.332 58.4688C224.559 58.5391 224.809 58.5742 225.082 58.5742C225.777 58.5742 226.324 58.4336 226.723 58.1523C227.129 57.8711 227.414 57.4883 227.578 57.0039C227.75 56.5117 227.836 55.9648 227.836 55.3633ZM240.258 58.1406V52.4922C240.258 52.0859 240.191 51.7383 240.059 51.4492C239.926 51.1523 239.719 50.9219 239.438 50.7578C239.164 50.5938 238.809 50.5117 238.371 50.5117C237.996 50.5117 237.672 50.5781 237.398 50.7109C237.125 50.8359 236.914 51.0195 236.766 51.2617C236.617 51.4961 236.543 51.7734 236.543 52.0938H233.168C233.168 51.5547 233.293 51.043 233.543 50.5586C233.793 50.0742 234.156 49.6484 234.633 49.2812C235.109 48.9062 235.676 48.6133 236.332 48.4023C236.996 48.1914 237.738 48.0859 238.559 48.0859C239.543 48.0859 240.418 48.25 241.184 48.5781C241.949 48.9062 242.551 49.3984 242.988 50.0547C243.434 50.7109 243.656 51.5312 243.656 52.5156V57.9414C243.656 58.6367 243.699 59.207 243.785 59.6523C243.871 60.0898 243.996 60.4727 244.16 60.8008V61H240.75C240.586 60.6562 240.461 60.2266 240.375 59.7109C240.297 59.1875 240.258 58.6641 240.258 58.1406ZM240.703 53.2773L240.727 55.1875H238.84C238.395 55.1875 238.008 55.2383 237.68 55.3398C237.352 55.4414 237.082 55.5859 236.871 55.7734C236.66 55.9531 236.504 56.1641 236.402 56.4062C236.309 56.6484 236.262 56.9141 236.262 57.2031C236.262 57.4922 236.328 57.7539 236.461 57.9883C236.594 58.2148 236.785 58.3945 237.035 58.5273C237.285 58.6523 237.578 58.7148 237.914 58.7148C238.422 58.7148 238.863 58.6133 239.238 58.4102C239.613 58.207 239.902 57.957 240.105 57.6602C240.316 57.3633 240.426 57.082 240.434 56.8164L241.324 58.2461C241.199 58.5664 241.027 58.8984 240.809 59.2422C240.598 59.5859 240.328 59.9102 240 60.2148C239.672 60.5117 239.277 60.7578 238.816 60.9531C238.355 61.1406 237.809 61.2344 237.176 61.2344C236.371 61.2344 235.641 61.0742 234.984 60.7539C234.336 60.4258 233.82 59.9766 233.438 59.4062C233.062 58.8281 232.875 58.1719 232.875 57.4375C232.875 56.7734 233 56.1836 233.25 55.668C233.5 55.1523 233.867 54.7188 234.352 54.3672C234.844 54.0078 235.457 53.7383 236.191 53.5586C236.926 53.3711 237.777 53.2773 238.746 53.2773H240.703ZM254.285 48.3203H257.344V60.5781C257.344 61.7344 257.086 62.7148 256.57 63.5195C256.062 64.332 255.352 64.9453 254.438 65.3594C253.523 65.7812 252.461 65.9922 251.25 65.9922C250.719 65.9922 250.156 65.9219 249.562 65.7812C248.977 65.6406 248.414 65.4219 247.875 65.125C247.344 64.8281 246.898 64.4531 246.539 64L248.027 62.0078C248.418 62.4609 248.871 62.8125 249.387 63.0625C249.902 63.3203 250.473 63.4492 251.098 63.4492C251.707 63.4492 252.223 63.3359 252.645 63.1094C253.066 62.8906 253.391 62.5664 253.617 62.1367C253.844 61.7148 253.957 61.2031 253.957 60.6016V51.25L254.285 48.3203ZM245.754 54.8125V54.5664C245.754 53.5977 245.871 52.7188 246.105 51.9297C246.348 51.1328 246.688 50.4492 247.125 49.8789C247.57 49.3086 248.109 48.8672 248.742 48.5547C249.375 48.2422 250.09 48.0859 250.887 48.0859C251.73 48.0859 252.438 48.2422 253.008 48.5547C253.578 48.8672 254.047 49.3125 254.414 49.8906C254.781 50.4609 255.066 51.1367 255.27 51.918C255.48 52.6914 255.645 53.5391 255.762 54.4609V55C255.645 55.8828 255.469 56.7031 255.234 57.4609C255 58.2188 254.691 58.8828 254.309 59.4531C253.926 60.0156 253.449 60.4531 252.879 60.7656C252.316 61.0781 251.645 61.2344 250.863 61.2344C250.082 61.2344 249.375 61.0742 248.742 60.7539C248.117 60.4336 247.582 59.9844 247.137 59.4062C246.691 58.8281 246.348 58.1484 246.105 57.3672C245.871 56.5859 245.754 55.7344 245.754 54.8125ZM249.129 54.5664V54.8125C249.129 55.3359 249.18 55.8242 249.281 56.2773C249.383 56.7305 249.539 57.1328 249.75 57.4844C249.969 57.8281 250.238 58.0977 250.559 58.293C250.887 58.4805 251.273 58.5742 251.719 58.5742C252.336 58.5742 252.84 58.4453 253.23 58.1875C253.621 57.9219 253.914 57.5586 254.109 57.0977C254.305 56.6367 254.418 56.1055 254.449 55.5039V53.9688C254.434 53.4766 254.367 53.0352 254.25 52.6445C254.133 52.2461 253.969 51.9062 253.758 51.625C253.547 51.3438 253.273 51.125 252.938 50.9688C252.602 50.8125 252.203 50.7344 251.742 50.7344C251.297 50.7344 250.91 50.8359 250.582 51.0391C250.262 51.2344 249.992 51.5039 249.773 51.8477C249.562 52.1914 249.402 52.5977 249.293 53.0664C249.184 53.5273 249.129 54.0273 249.129 54.5664ZM265.805 61.2344C264.82 61.2344 263.938 61.0781 263.156 60.7656C262.375 60.4453 261.711 60.0039 261.164 59.4414C260.625 58.8789 260.211 58.2266 259.922 57.4844C259.633 56.7344 259.488 55.9375 259.488 55.0938V54.625C259.488 53.6641 259.625 52.7852 259.898 51.9883C260.172 51.1914 260.562 50.5 261.07 49.9141C261.586 49.3281 262.211 48.8789 262.945 48.5664C263.68 48.2461 264.508 48.0859 265.43 48.0859C266.328 48.0859 267.125 48.2344 267.82 48.5312C268.516 48.8281 269.098 49.25 269.566 49.7969C270.043 50.3438 270.402 51 270.645 51.7656C270.887 52.5234 271.008 53.3672 271.008 54.2969V55.7031H260.93V53.4531H267.691V53.1953C267.691 52.7266 267.605 52.3086 267.434 51.9414C267.27 51.5664 267.02 51.2695 266.684 51.0508C266.348 50.832 265.918 50.7227 265.395 50.7227C264.949 50.7227 264.566 50.8203 264.246 51.0156C263.926 51.2109 263.664 51.4844 263.461 51.8359C263.266 52.1875 263.117 52.6016 263.016 53.0781C262.922 53.5469 262.875 54.0625 262.875 54.625V55.0938C262.875 55.6016 262.945 56.0703 263.086 56.5C263.234 56.9297 263.441 57.3008 263.707 57.6133C263.98 57.9258 264.309 58.168 264.691 58.3398C265.082 58.5117 265.523 58.5977 266.016 58.5977C266.625 58.5977 267.191 58.4805 267.715 58.2461C268.246 58.0039 268.703 57.6406 269.086 57.1562L270.727 58.9375C270.461 59.3203 270.098 59.6875 269.637 60.0391C269.184 60.3906 268.637 60.6797 267.996 60.9062C267.355 61.125 266.625 61.2344 265.805 61.2344ZM282.855 43.9375V61H279.352V43.9375H282.855ZM289.242 51.0273V61H285.867V48.3203H289.031L289.242 51.0273ZM288.75 54.2148H287.836C287.836 53.2773 287.957 52.4336 288.199 51.6836C288.441 50.9258 288.781 50.2812 289.219 49.75C289.656 49.2109 290.176 48.8008 290.777 48.5195C291.387 48.2305 292.066 48.0859 292.816 48.0859C293.41 48.0859 293.953 48.1719 294.445 48.3438C294.938 48.5156 295.359 48.7891 295.711 49.1641C296.07 49.5391 296.344 50.0352 296.531 50.6523C296.727 51.2695 296.824 52.0234 296.824 52.9141V61H293.426V52.9023C293.426 52.3398 293.348 51.9023 293.191 51.5898C293.035 51.2773 292.805 51.0586 292.5 50.9336C292.203 50.8008 291.836 50.7344 291.398 50.7344C290.945 50.7344 290.551 50.8242 290.215 51.0039C289.887 51.1836 289.613 51.4336 289.395 51.7539C289.184 52.0664 289.023 52.4336 288.914 52.8555C288.805 53.2773 288.75 53.7305 288.75 54.2148ZM305.602 48.3203V50.7109H298.219V48.3203H305.602ZM300.047 45.1914H303.422V57.1797C303.422 57.5469 303.469 57.8281 303.562 58.0234C303.664 58.2188 303.812 58.3555 304.008 58.4336C304.203 58.5039 304.449 58.5391 304.746 58.5391C304.957 58.5391 305.145 58.5312 305.309 58.5156C305.48 58.4922 305.625 58.4688 305.742 58.4453L305.754 60.9297C305.465 61.0234 305.152 61.0977 304.816 61.1523C304.48 61.207 304.109 61.2344 303.703 61.2344C302.961 61.2344 302.312 61.1133 301.758 60.8711C301.211 60.6211 300.789 60.2227 300.492 59.6758C300.195 59.1289 300.047 58.4102 300.047 57.5195V45.1914ZM313.359 61.2344C312.375 61.2344 311.492 61.0781 310.711 60.7656C309.93 60.4453 309.266 60.0039 308.719 59.4414C308.18 58.8789 307.766 58.2266 307.477 57.4844C307.188 56.7344 307.043 55.9375 307.043 55.0938V54.625C307.043 53.6641 307.18 52.7852 307.453 51.9883C307.727 51.1914 308.117 50.5 308.625 49.9141C309.141 49.3281 309.766 48.8789 310.5 48.5664C311.234 48.2461 312.062 48.0859 312.984 48.0859C313.883 48.0859 314.68 48.2344 315.375 48.5312C316.07 48.8281 316.652 49.25 317.121 49.7969C317.598 50.3438 317.957 51 318.199 51.7656C318.441 52.5234 318.562 53.3672 318.562 54.2969V55.7031H308.484V53.4531H315.246V53.1953C315.246 52.7266 315.16 52.3086 314.988 51.9414C314.824 51.5664 314.574 51.2695 314.238 51.0508C313.902 50.832 313.473 50.7227 312.949 50.7227C312.504 50.7227 312.121 50.8203 311.801 51.0156C311.48 51.2109 311.219 51.4844 311.016 51.8359C310.82 52.1875 310.672 52.6016 310.57 53.0781C310.477 53.5469 310.43 54.0625 310.43 54.625V55.0938C310.43 55.6016 310.5 56.0703 310.641 56.5C310.789 56.9297 310.996 57.3008 311.262 57.6133C311.535 57.9258 311.863 58.168 312.246 58.3398C312.637 58.5117 313.078 58.5977 313.57 58.5977C314.18 58.5977 314.746 58.4805 315.27 58.2461C315.801 58.0039 316.258 57.6406 316.641 57.1562L318.281 58.9375C318.016 59.3203 317.652 59.6875 317.191 60.0391C316.738 60.3906 316.191 60.6797 315.551 60.9062C314.91 61.125 314.18 61.2344 313.359 61.2344ZM323.859 51.0859V61H320.484V48.3203H323.66L323.859 51.0859ZM327.68 48.2383L327.621 51.3672C327.457 51.3438 327.258 51.3242 327.023 51.3086C326.797 51.2852 326.59 51.2734 326.402 51.2734C325.926 51.2734 325.512 51.3359 325.16 51.4609C324.816 51.5781 324.527 51.7539 324.293 51.9883C324.066 52.2227 323.895 52.5078 323.777 52.8438C323.668 53.1797 323.605 53.5625 323.59 53.9922L322.91 53.7812C322.91 52.9609 322.992 52.207 323.156 51.5195C323.32 50.8242 323.559 50.2188 323.871 49.7031C324.191 49.1875 324.582 48.7891 325.043 48.5078C325.504 48.2266 326.031 48.0859 326.625 48.0859C326.812 48.0859 327.004 48.1016 327.199 48.1328C327.395 48.1562 327.555 48.1914 327.68 48.2383ZM332.648 50.7578V65.875H329.273V48.3203H332.402L332.648 50.7578ZM340.676 54.5195V54.7656C340.676 55.6875 340.566 56.543 340.348 57.332C340.137 58.1211 339.824 58.8086 339.41 59.3945C338.996 59.9727 338.48 60.4258 337.863 60.7539C337.254 61.0742 336.551 61.2344 335.754 61.2344C334.98 61.2344 334.309 61.0781 333.738 60.7656C333.168 60.4531 332.688 60.0156 332.297 59.4531C331.914 58.8828 331.605 58.2227 331.371 57.4727C331.137 56.7227 330.957 55.918 330.832 55.0586V54.4141C330.957 53.4922 331.137 52.6484 331.371 51.8828C331.605 51.1094 331.914 50.4414 332.297 49.8789C332.688 49.3086 333.164 48.8672 333.727 48.5547C334.297 48.2422 334.965 48.0859 335.73 48.0859C336.535 48.0859 337.242 48.2383 337.852 48.543C338.469 48.8477 338.984 49.2852 339.398 49.8555C339.82 50.4258 340.137 51.1055 340.348 51.8945C340.566 52.6836 340.676 53.5586 340.676 54.5195ZM337.289 54.7656V54.5195C337.289 53.9805 337.242 53.4844 337.148 53.0312C337.062 52.5703 336.922 52.168 336.727 51.8242C336.539 51.4805 336.289 51.2148 335.977 51.0273C335.672 50.832 335.301 50.7344 334.863 50.7344C334.402 50.7344 334.008 50.8086 333.68 50.957C333.359 51.1055 333.098 51.3203 332.895 51.6016C332.691 51.8828 332.539 52.2188 332.438 52.6094C332.336 53 332.273 53.4414 332.25 53.9336V55.5625C332.289 56.1406 332.398 56.6602 332.578 57.1211C332.758 57.5742 333.035 57.9336 333.41 58.1992C333.785 58.4648 334.277 58.5977 334.887 58.5977C335.332 58.5977 335.707 58.5 336.012 58.3047C336.316 58.1016 336.562 57.8242 336.75 57.4727C336.945 57.1211 337.082 56.7148 337.16 56.2539C337.246 55.793 337.289 55.2969 337.289 54.7656ZM346.148 51.0859V61H342.773V48.3203H345.949L346.148 51.0859ZM349.969 48.2383L349.91 51.3672C349.746 51.3438 349.547 51.3242 349.312 51.3086C349.086 51.2852 348.879 51.2734 348.691 51.2734C348.215 51.2734 347.801 51.3359 347.449 51.4609C347.105 51.5781 346.816 51.7539 346.582 51.9883C346.355 52.2227 346.184 52.5078 346.066 52.8438C345.957 53.1797 345.895 53.5625 345.879 53.9922L345.199 53.7812C345.199 52.9609 345.281 52.207 345.445 51.5195C345.609 50.8242 345.848 50.2188 346.16 49.7031C346.48 49.1875 346.871 48.7891 347.332 48.5078C347.793 48.2266 348.32 48.0859 348.914 48.0859C349.102 48.0859 349.293 48.1016 349.488 48.1328C349.684 48.1562 349.844 48.1914 349.969 48.2383ZM357.164 61.2344C356.18 61.2344 355.297 61.0781 354.516 60.7656C353.734 60.4453 353.07 60.0039 352.523 59.4414C351.984 58.8789 351.57 58.2266 351.281 57.4844C350.992 56.7344 350.848 55.9375 350.848 55.0938V54.625C350.848 53.6641 350.984 52.7852 351.258 51.9883C351.531 51.1914 351.922 50.5 352.43 49.9141C352.945 49.3281 353.57 48.8789 354.305 48.5664C355.039 48.2461 355.867 48.0859 356.789 48.0859C357.688 48.0859 358.484 48.2344 359.18 48.5312C359.875 48.8281 360.457 49.25 360.926 49.7969C361.402 50.3438 361.762 51 362.004 51.7656C362.246 52.5234 362.367 53.3672 362.367 54.2969V55.7031H352.289V53.4531H359.051V53.1953C359.051 52.7266 358.965 52.3086 358.793 51.9414C358.629 51.5664 358.379 51.2695 358.043 51.0508C357.707 50.832 357.277 50.7227 356.754 50.7227C356.309 50.7227 355.926 50.8203 355.605 51.0156C355.285 51.2109 355.023 51.4844 354.82 51.8359C354.625 52.1875 354.477 52.6016 354.375 53.0781C354.281 53.5469 354.234 54.0625 354.234 54.625V55.0938C354.234 55.6016 354.305 56.0703 354.445 56.5C354.594 56.9297 354.801 57.3008 355.066 57.6133C355.34 57.9258 355.668 58.168 356.051 58.3398C356.441 58.5117 356.883 58.5977 357.375 58.5977C357.984 58.5977 358.551 58.4805 359.074 58.2461C359.605 58.0039 360.062 57.6406 360.445 57.1562L362.086 58.9375C361.82 59.3203 361.457 59.6875 360.996 60.0391C360.543 60.3906 359.996 60.6797 359.355 60.9062C358.715 61.125 357.984 61.2344 357.164 61.2344ZM370.5 48.3203V50.7109H363.117V48.3203H370.5ZM364.945 45.1914H368.32V57.1797C368.32 57.5469 368.367 57.8281 368.461 58.0234C368.562 58.2188 368.711 58.3555 368.906 58.4336C369.102 58.5039 369.348 58.5391 369.645 58.5391C369.855 58.5391 370.043 58.5312 370.207 58.5156C370.379 58.4922 370.523 58.4688 370.641 58.4453L370.652 60.9297C370.363 61.0234 370.051 61.0977 369.715 61.1523C369.379 61.207 369.008 61.2344 368.602 61.2344C367.859 61.2344 367.211 61.1133 366.656 60.8711C366.109 60.6211 365.688 60.2227 365.391 59.6758C365.094 59.1289 364.945 58.4102 364.945 57.5195V45.1914ZM378.258 61.2344C377.273 61.2344 376.391 61.0781 375.609 60.7656C374.828 60.4453 374.164 60.0039 373.617 59.4414C373.078 58.8789 372.664 58.2266 372.375 57.4844C372.086 56.7344 371.941 55.9375 371.941 55.0938V54.625C371.941 53.6641 372.078 52.7852 372.352 51.9883C372.625 51.1914 373.016 50.5 373.523 49.9141C374.039 49.3281 374.664 48.8789 375.398 48.5664C376.133 48.2461 376.961 48.0859 377.883 48.0859C378.781 48.0859 379.578 48.2344 380.273 48.5312C380.969 48.8281 381.551 49.25 382.02 49.7969C382.496 50.3438 382.855 51 383.098 51.7656C383.34 52.5234 383.461 53.3672 383.461 54.2969V55.7031H373.383V53.4531H380.145V53.1953C380.145 52.7266 380.059 52.3086 379.887 51.9414C379.723 51.5664 379.473 51.2695 379.137 51.0508C378.801 50.832 378.371 50.7227 377.848 50.7227C377.402 50.7227 377.02 50.8203 376.699 51.0156C376.379 51.2109 376.117 51.4844 375.914 51.8359C375.719 52.1875 375.57 52.6016 375.469 53.0781C375.375 53.5469 375.328 54.0625 375.328 54.625V55.0938C375.328 55.6016 375.398 56.0703 375.539 56.5C375.688 56.9297 375.895 57.3008 376.16 57.6133C376.434 57.9258 376.762 58.168 377.145 58.3398C377.535 58.5117 377.977 58.5977 378.469 58.5977C379.078 58.5977 379.645 58.4805 380.168 58.2461C380.699 58.0039 381.156 57.6406 381.539 57.1562L383.18 58.9375C382.914 59.3203 382.551 59.6875 382.09 60.0391C381.637 60.3906 381.09 60.6797 380.449 60.9062C379.809 61.125 379.078 61.2344 378.258 61.2344ZM388.758 51.0859V61H385.383V48.3203H388.559L388.758 51.0859ZM392.578 48.2383L392.52 51.3672C392.355 51.3438 392.156 51.3242 391.922 51.3086C391.695 51.2852 391.488 51.2734 391.301 51.2734C390.824 51.2734 390.41 51.3359 390.059 51.4609C389.715 51.5781 389.426 51.7539 389.191 51.9883C388.965 52.2227 388.793 52.5078 388.676 52.8438C388.566 53.1797 388.504 53.5625 388.488 53.9922L387.809 53.7812C387.809 52.9609 387.891 52.207 388.055 51.5195C388.219 50.8242 388.457 50.2188 388.77 49.7031C389.09 49.1875 389.48 48.7891 389.941 48.5078C390.402 48.2266 390.93 48.0859 391.523 48.0859C391.711 48.0859 391.902 48.1016 392.098 48.1328C392.293 48.1562 392.453 48.1914 392.578 48.2383Z" fill="#888888"/>
<path d="M110.062 92.0469L101.742 119H92.9062L105.445 84.875H111.047L110.062 92.0469ZM116.953 119L108.609 92.0469L107.531 84.875H113.203L125.812 119H116.953ZM116.625 106.273V112.625H99.1172V106.273H116.625ZM135.258 115.906L142.055 84.875H146.109L148.312 87.5234L141.07 119H136.594L135.258 115.906ZM133.453 84.875L139.195 116.141L137.719 119H132.539L125.297 84.875H133.453ZM152.039 115.977L157.734 84.875H165.867L158.625 119H153.469L152.039 115.977ZM149.039 84.875L156 116.094L154.594 119H150.117L142.711 87.4766L145.008 84.875H149.039ZM186.68 109.93C186.68 109.398 186.602 108.922 186.445 108.5C186.289 108.062 186 107.656 185.578 107.281C185.156 106.906 184.547 106.531 183.75 106.156C182.969 105.766 181.938 105.359 180.656 104.938C179.156 104.438 177.711 103.875 176.32 103.25C174.93 102.609 173.688 101.867 172.594 101.023C171.5 100.164 170.633 99.1641 169.992 98.0234C169.352 96.8672 169.031 95.5234 169.031 93.9922C169.031 92.5234 169.359 91.2031 170.016 90.0312C170.672 88.8438 171.586 87.8359 172.758 87.0078C173.945 86.1641 175.336 85.5234 176.93 85.0859C178.523 84.6328 180.266 84.4062 182.156 84.4062C184.656 84.4062 186.859 84.8438 188.766 85.7188C190.688 86.5781 192.188 87.8047 193.266 89.3984C194.359 90.9766 194.906 92.8438 194.906 95H186.727C186.727 94.1406 186.547 93.3828 186.188 92.7266C185.844 92.0703 185.32 91.5547 184.617 91.1797C183.914 90.8047 183.031 90.6172 181.969 90.6172C180.938 90.6172 180.07 90.7734 179.367 91.0859C178.664 91.3984 178.133 91.8203 177.773 92.3516C177.414 92.8672 177.234 93.4375 177.234 94.0625C177.234 94.5781 177.375 95.0469 177.656 95.4688C177.953 95.875 178.367 96.2578 178.898 96.6172C179.445 96.9766 180.102 97.3203 180.867 97.6484C181.648 97.9766 182.523 98.2969 183.492 98.6094C185.305 99.1875 186.914 99.8359 188.32 100.555C189.742 101.258 190.938 102.062 191.906 102.969C192.891 103.859 193.633 104.875 194.133 106.016C194.648 107.156 194.906 108.445 194.906 109.883C194.906 111.414 194.609 112.773 194.016 113.961C193.422 115.148 192.57 116.156 191.461 116.984C190.352 117.797 189.023 118.414 187.477 118.836C185.93 119.258 184.203 119.469 182.297 119.469C180.547 119.469 178.82 119.25 177.117 118.812C175.43 118.359 173.898 117.672 172.523 116.75C171.148 115.812 170.047 114.617 169.219 113.164C168.406 111.695 168 109.953 168 107.938H176.25C176.25 108.938 176.383 109.781 176.648 110.469C176.914 111.156 177.305 111.711 177.82 112.133C178.336 112.539 178.969 112.836 179.719 113.023C180.469 113.195 181.328 113.281 182.297 113.281C183.344 113.281 184.188 113.133 184.828 112.836C185.469 112.523 185.938 112.117 186.234 111.617C186.531 111.102 186.68 110.539 186.68 109.93ZM222.188 119H214.617L214.664 112.672H222.188C223.75 112.672 225.07 112.297 226.148 111.547C227.242 110.797 228.07 109.68 228.633 108.195C229.211 106.695 229.5 104.852 229.5 102.664V101.188C229.5 99.5469 229.336 98.1094 229.008 96.875C228.695 95.625 228.227 94.5859 227.602 93.7578C226.977 92.9141 226.195 92.2812 225.258 91.8594C224.336 91.4375 223.273 91.2266 222.07 91.2266H214.477V84.875H222.07C224.383 84.875 226.5 85.2734 228.422 86.0703C230.359 86.8516 232.031 87.9766 233.438 89.4453C234.859 90.8984 235.953 92.625 236.719 94.625C237.5 96.6094 237.891 98.8125 237.891 101.234V102.664C237.891 105.07 237.5 107.273 236.719 109.273C235.953 111.273 234.867 113 233.461 114.453C232.055 115.906 230.391 117.031 228.469 117.828C226.562 118.609 224.469 119 222.188 119ZM219.328 84.875V119H211.102V84.875H219.328ZM254.086 119.469C252.023 119.469 250.18 119.148 248.555 118.508C246.93 117.852 245.555 116.953 244.43 115.812C243.32 114.672 242.469 113.359 241.875 111.875C241.297 110.391 241.008 108.82 241.008 107.164V106.273C241.008 104.414 241.266 102.695 241.781 101.117C242.297 99.5234 243.062 98.1328 244.078 96.9453C245.094 95.7578 246.367 94.8359 247.898 94.1797C249.43 93.5078 251.211 93.1719 253.242 93.1719C255.039 93.1719 256.648 93.4609 258.07 94.0391C259.492 94.6172 260.695 95.4453 261.68 96.5234C262.68 97.6016 263.438 98.9062 263.953 100.438C264.484 101.969 264.75 103.688 264.75 105.594V108.805H244.031V103.859H257.039V103.25C257.055 102.406 256.906 101.688 256.594 101.094C256.297 100.5 255.859 100.047 255.281 99.7344C254.703 99.4219 254 99.2656 253.172 99.2656C252.312 99.2656 251.602 99.4531 251.039 99.8281C250.492 100.203 250.062 100.719 249.75 101.375C249.453 102.016 249.242 102.758 249.117 103.602C248.992 104.445 248.93 105.336 248.93 106.273V107.164C248.93 108.102 249.055 108.953 249.305 109.719C249.57 110.484 249.945 111.141 250.43 111.688C250.93 112.219 251.523 112.633 252.211 112.93C252.914 113.227 253.711 113.375 254.602 113.375C255.68 113.375 256.742 113.172 257.789 112.766C258.836 112.359 259.734 111.688 260.484 110.75L264.07 115.016C263.555 115.75 262.82 116.461 261.867 117.148C260.93 117.836 259.805 118.398 258.492 118.836C257.18 119.258 255.711 119.469 254.086 119.469ZM275.93 98.5156V128.75H268.031V93.6406H275.391L275.93 98.5156ZM291.492 106.016V106.508C291.492 108.352 291.281 110.062 290.859 111.641C290.438 113.219 289.812 114.594 288.984 115.766C288.156 116.938 287.125 117.852 285.891 118.508C284.672 119.148 283.258 119.469 281.648 119.469C280.133 119.469 278.828 119.133 277.734 118.461C276.641 117.789 275.727 116.859 274.992 115.672C274.258 114.484 273.664 113.125 273.211 111.594C272.758 110.062 272.398 108.445 272.133 106.742V106.109C272.398 104.281 272.758 102.586 273.211 101.023C273.664 99.4453 274.258 98.0703 274.992 96.8984C275.727 95.7266 276.633 94.8125 277.711 94.1562C278.805 93.5 280.109 93.1719 281.625 93.1719C283.234 93.1719 284.648 93.4766 285.867 94.0859C287.102 94.6953 288.133 95.5703 288.961 96.7109C289.805 97.8359 290.438 99.1875 290.859 100.766C291.281 102.344 291.492 104.094 291.492 106.016ZM283.594 106.508V106.016C283.594 105.031 283.523 104.133 283.383 103.32C283.242 102.492 283.016 101.773 282.703 101.164C282.406 100.555 282.008 100.086 281.508 99.7578C281.008 99.4297 280.391 99.2656 279.656 99.2656C278.812 99.2656 278.102 99.3984 277.523 99.6641C276.961 99.9141 276.508 100.305 276.164 100.836C275.836 101.352 275.602 102 275.461 102.781C275.336 103.547 275.281 104.445 275.297 105.477V107.398C275.266 108.586 275.383 109.633 275.648 110.539C275.914 111.43 276.375 112.125 277.031 112.625C277.688 113.125 278.578 113.375 279.703 113.375C280.453 113.375 281.078 113.203 281.578 112.859C282.078 112.5 282.477 112.008 282.773 111.383C283.07 110.742 283.281 110.008 283.406 109.18C283.531 108.352 283.594 107.461 283.594 106.508ZM303.352 83V119H295.43V83H303.352ZM307.242 106.578V106.086C307.242 104.227 307.508 102.516 308.039 100.953C308.57 99.375 309.352 98.0078 310.383 96.8516C311.414 95.6953 312.688 94.7969 314.203 94.1562C315.719 93.5 317.469 93.1719 319.453 93.1719C321.453 93.1719 323.211 93.5 324.727 94.1562C326.258 94.7969 327.539 95.6953 328.57 96.8516C329.602 98.0078 330.383 99.375 330.914 100.953C331.445 102.516 331.711 104.227 331.711 106.086V106.578C331.711 108.422 331.445 110.133 330.914 111.711C330.383 113.273 329.602 114.641 328.57 115.812C327.539 116.969 326.266 117.867 324.75 118.508C323.234 119.148 321.484 119.469 319.5 119.469C317.516 119.469 315.758 119.148 314.227 118.508C312.695 117.867 311.414 116.969 310.383 115.812C309.352 114.641 308.57 113.273 308.039 111.711C307.508 110.133 307.242 108.422 307.242 106.578ZM315.141 106.086V106.578C315.141 107.531 315.211 108.422 315.352 109.25C315.492 110.078 315.727 110.805 316.055 111.43C316.383 112.039 316.828 112.516 317.391 112.859C317.953 113.203 318.656 113.375 319.5 113.375C320.328 113.375 321.016 113.203 321.562 112.859C322.125 112.516 322.57 112.039 322.898 111.43C323.227 110.805 323.461 110.078 323.602 109.25C323.742 108.422 323.812 107.531 323.812 106.578V106.086C323.812 105.164 323.742 104.297 323.602 103.484C323.461 102.656 323.227 101.93 322.898 101.305C322.57 100.664 322.125 100.164 321.562 99.8047C321 99.4453 320.297 99.2656 319.453 99.2656C318.625 99.2656 317.93 99.4453 317.367 99.8047C316.82 100.164 316.383 100.664 316.055 101.305C315.727 101.93 315.492 102.656 315.352 103.484C315.211 104.297 315.141 105.164 315.141 106.086ZM342.633 116.023L349.195 93.6406H357.68L347.484 122.773C347.266 123.414 346.977 124.102 346.617 124.836C346.258 125.586 345.766 126.297 345.141 126.969C344.516 127.641 343.711 128.188 342.727 128.609C341.758 129.031 340.555 129.242 339.117 129.242C338.352 129.242 337.789 129.203 337.43 129.125C337.086 129.062 336.555 128.945 335.836 128.773V123.125C336.039 123.125 336.211 123.125 336.352 123.125C336.508 123.125 336.68 123.125 336.867 123.125C337.711 123.125 338.383 123.039 338.883 122.867C339.398 122.695 339.789 122.445 340.055 122.117C340.336 121.789 340.555 121.391 340.711 120.922L342.633 116.023ZM340.969 93.6406L345.961 111.383L346.828 119.75H341.531L332.508 93.6406H340.969ZM367.711 99.0078V119H359.812V93.6406H367.219L367.711 99.0078ZM366.75 105.453L364.945 105.5C364.945 103.719 365.156 102.078 365.578 100.578C366 99.0781 366.625 97.7734 367.453 96.6641C368.281 95.5547 369.297 94.6953 370.5 94.0859C371.719 93.4766 373.125 93.1719 374.719 93.1719C375.828 93.1719 376.836 93.3438 377.742 93.6875C378.648 94.0156 379.43 94.5391 380.086 95.2578C380.742 95.9609 381.242 96.8828 381.586 98.0234C381.945 99.1484 382.125 100.5 382.125 102.078V119H374.227V103.086C374.227 102.008 374.102 101.195 373.852 100.648C373.617 100.102 373.273 99.7344 372.82 99.5469C372.367 99.3594 371.812 99.2656 371.156 99.2656C370.469 99.2656 369.852 99.4219 369.305 99.7344C368.758 100.047 368.289 100.484 367.898 101.047C367.523 101.594 367.234 102.242 367.031 102.992C366.844 103.742 366.75 104.562 366.75 105.453ZM381.234 105.453L379.031 105.5C379.031 103.719 379.227 102.078 379.617 100.578C380.023 99.0781 380.625 97.7734 381.422 96.6641C382.234 95.5547 383.242 94.6953 384.445 94.0859C385.648 93.4766 387.047 93.1719 388.641 93.1719C389.797 93.1719 390.859 93.3438 391.828 93.6875C392.797 94.0312 393.633 94.5859 394.336 95.3516C395.039 96.1172 395.586 97.1328 395.977 98.3984C396.367 99.6484 396.562 101.195 396.562 103.039V119H388.641V103.039C388.641 101.992 388.516 101.203 388.266 100.672C388.031 100.125 387.688 99.7578 387.234 99.5703C386.781 99.3672 386.242 99.2656 385.617 99.2656C384.867 99.2656 384.219 99.4219 383.672 99.7344C383.125 100.047 382.664 100.484 382.289 101.047C381.93 101.594 381.664 102.242 381.492 102.992C381.32 103.742 381.234 104.562 381.234 105.453ZM413.367 119.469C411.305 119.469 409.461 119.148 407.836 118.508C406.211 117.852 404.836 116.953 403.711 115.812C402.602 114.672 401.75 113.359 401.156 111.875C400.578 110.391 400.289 108.82 400.289 107.164V106.273C400.289 104.414 400.547 102.695 401.062 101.117C401.578 99.5234 402.344 98.1328 403.359 96.9453C404.375 95.7578 405.648 94.8359 407.18 94.1797C408.711 93.5078 410.492 93.1719 412.523 93.1719C414.32 93.1719 415.93 93.4609 417.352 94.0391C418.773 94.6172 419.977 95.4453 420.961 96.5234C421.961 97.6016 422.719 98.9062 423.234 100.438C423.766 101.969 424.031 103.688 424.031 105.594V108.805H403.312V103.859H416.32V103.25C416.336 102.406 416.188 101.688 415.875 101.094C415.578 100.5 415.141 100.047 414.562 99.7344C413.984 99.4219 413.281 99.2656 412.453 99.2656C411.594 99.2656 410.883 99.4531 410.32 99.8281C409.773 100.203 409.344 100.719 409.031 101.375C408.734 102.016 408.523 102.758 408.398 103.602C408.273 104.445 408.211 105.336 408.211 106.273V107.164C408.211 108.102 408.336 108.953 408.586 109.719C408.852 110.484 409.227 111.141 409.711 111.688C410.211 112.219 410.805 112.633 411.492 112.93C412.195 113.227 412.992 113.375 413.883 113.375C414.961 113.375 416.023 113.172 417.07 112.766C418.117 112.359 419.016 111.688 419.766 110.75L423.352 115.016C422.836 115.75 422.102 116.461 421.148 117.148C420.211 117.836 419.086 118.398 417.773 118.836C416.461 119.258 414.992 119.469 413.367 119.469ZM435 99.0547V119H427.102V93.6406H434.508L435 99.0547ZM434.062 105.453L432.211 105.5C432.211 103.562 432.445 101.836 432.914 100.32C433.383 98.7891 434.047 97.4922 434.906 96.4297C435.766 95.3672 436.789 94.5625 437.977 94.0156C439.18 93.4531 440.516 93.1719 441.984 93.1719C443.156 93.1719 444.227 93.3438 445.195 93.6875C446.18 94.0312 447.023 94.5859 447.727 95.3516C448.445 96.1172 448.992 97.1328 449.367 98.3984C449.758 99.6484 449.953 101.195 449.953 103.039V119H442.008V103.016C442.008 102 441.867 101.227 441.586 100.695C441.305 100.148 440.898 99.7734 440.367 99.5703C439.836 99.3672 439.188 99.2656 438.422 99.2656C437.609 99.2656 436.922 99.4219 436.359 99.7344C435.797 100.047 435.344 100.484 435 101.047C434.672 101.594 434.43 102.242 434.273 102.992C434.133 103.742 434.062 104.562 434.062 105.453ZM467.695 93.6406V99.125H452.414V93.6406H467.695ZM455.625 87.3359H463.523V110.727C463.523 111.398 463.602 111.922 463.758 112.297C463.914 112.656 464.18 112.914 464.555 113.07C464.945 113.211 465.461 113.281 466.102 113.281C466.555 113.281 466.93 113.273 467.227 113.258C467.523 113.227 467.805 113.188 468.07 113.141V118.789C467.398 119.008 466.695 119.172 465.961 119.281C465.227 119.406 464.445 119.469 463.617 119.469C461.93 119.469 460.484 119.203 459.281 118.672C458.094 118.141 457.188 117.305 456.562 116.164C455.938 115.023 455.625 113.539 455.625 111.711V87.3359Z" fill="black"/>
<path d="M1134 0H1348C1356.28 0 1363 6.71573 1363 15V148C1363 156.284 1356.28 163 1348 163H1134V0Z" fill="#71D4CC"/>
<path d="M1212.5 117.5L1212.5 45.5L1284.5 45.5L1284.5 117.5L1212.5 117.5Z" fill="white" fill-opacity="0.01"/>
<path d="M1221.5 81.5125L1221.5 108.5L1275.5 108.5L1275.5 81.5" stroke="white" stroke-width="7.24" stroke-linecap="round" stroke-linejoin="round"/>
<path d="M1262 68L1248.5 54.5L1235 68" stroke="white" stroke-width="7.24" stroke-linecap="round" stroke-linejoin="round"/>
<path d="M1248.49 93.5L1248.49 54.5" stroke="white" stroke-width="7.24" stroke-linecap="round" stroke-linejoin="round"/>
</svg>
