<svg width="1363" height="163" viewBox="0 0 1363 163" fill="none" xmlns="http://www.w3.org/2000/svg">
<path d="M0 15C0 6.71573 6.71573 0 15 0H37V163H15C6.71573 163 0 156.284 0 148V15Z" fill="#424242"/>
<rect width="1097" height="163" transform="translate(37)" fill="#F0F0F0"/>
<path d="M101.906 53.9219L94.3945 51.2383V48.0859L104.602 52.375V54.6367L101.906 53.9219ZM94.3945 56.1719L101.918 53.4297L104.602 52.7852V55.0352L94.3945 59.3242V56.1719ZM121.781 56.5352C121.781 56.2305 121.734 55.957 121.641 55.7148C121.555 55.4648 121.391 55.2383 121.148 55.0352C120.906 54.8242 120.566 54.6172 120.129 54.4141C119.691 54.2109 119.125 54 118.43 53.7812C117.656 53.5312 116.922 53.25 116.227 52.9375C115.539 52.625 114.93 52.2617 114.398 51.8477C113.875 51.4258 113.461 50.9375 113.156 50.3828C112.859 49.8281 112.711 49.1836 112.711 48.4492C112.711 47.7383 112.867 47.0938 113.18 46.5156C113.492 45.9297 113.93 45.4297 114.492 45.0156C115.055 44.5938 115.719 44.2695 116.484 44.043C117.258 43.8164 118.105 43.7031 119.027 43.7031C120.285 43.7031 121.383 43.9297 122.32 44.3828C123.258 44.8359 123.984 45.457 124.5 46.2461C125.023 47.0352 125.285 47.9375 125.285 48.9531H121.793C121.793 48.4531 121.688 48.0156 121.477 47.6406C121.273 47.2578 120.961 46.957 120.539 46.7383C120.125 46.5195 119.602 46.4102 118.969 46.4102C118.359 46.4102 117.852 46.5039 117.445 46.6914C117.039 46.8711 116.734 47.1172 116.531 47.4297C116.328 47.7344 116.227 48.0781 116.227 48.4609C116.227 48.75 116.297 49.0117 116.438 49.2461C116.586 49.4805 116.805 49.6992 117.094 49.9023C117.383 50.1055 117.738 50.2969 118.16 50.4766C118.582 50.6562 119.07 50.832 119.625 51.0039C120.555 51.2852 121.371 51.6016 122.074 51.9531C122.785 52.3047 123.379 52.6992 123.855 53.1367C124.332 53.5742 124.691 54.0703 124.934 54.625C125.176 55.1797 125.297 55.8086 125.297 56.5117C125.297 57.2539 125.152 57.918 124.863 58.5039C124.574 59.0898 124.156 59.5859 123.609 59.9922C123.062 60.3984 122.41 60.707 121.652 60.918C120.895 61.1289 120.047 61.2344 119.109 61.2344C118.266 61.2344 117.434 61.125 116.613 60.9062C115.793 60.6797 115.047 60.3398 114.375 59.8867C113.711 59.4336 113.18 58.8555 112.781 58.1523C112.383 57.4492 112.184 56.6172 112.184 55.6562H115.711C115.711 56.1875 115.793 56.6367 115.957 57.0039C116.121 57.3711 116.352 57.668 116.648 57.8945C116.953 58.1211 117.312 58.2852 117.727 58.3867C118.148 58.4883 118.609 58.5391 119.109 58.5391C119.719 58.5391 120.219 58.4531 120.609 58.2812C121.008 58.1094 121.301 57.8711 121.488 57.5664C121.684 57.2617 121.781 56.918 121.781 56.5352ZM131.039 48.3203V61H127.652V48.3203H131.039ZM127.441 45.0156C127.441 44.5234 127.613 44.1172 127.957 43.7969C128.301 43.4766 128.762 43.3164 129.34 43.3164C129.91 43.3164 130.367 43.4766 130.711 43.7969C131.062 44.1172 131.238 44.5234 131.238 45.0156C131.238 45.5078 131.062 45.9141 130.711 46.2344C130.367 46.5547 129.91 46.7148 129.34 46.7148C128.762 46.7148 128.301 46.5547 127.957 46.2344C127.613 45.9141 127.441 45.5078 127.441 45.0156ZM141.855 48.3203H144.914V60.5781C144.914 61.7344 144.656 62.7148 144.141 63.5195C143.633 64.332 142.922 64.9453 142.008 65.3594C141.094 65.7812 140.031 65.9922 138.82 65.9922C138.289 65.9922 137.727 65.9219 137.133 65.7812C136.547 65.6406 135.984 65.4219 135.445 65.125C134.914 64.8281 134.469 64.4531 134.109 64L135.598 62.0078C135.988 62.4609 136.441 62.8125 136.957 63.0625C137.473 63.3203 138.043 63.4492 138.668 63.4492C139.277 63.4492 139.793 63.3359 140.215 63.1094C140.637 62.8906 140.961 62.5664 141.188 62.1367C141.414 61.7148 141.527 61.2031 141.527 60.6016V51.25L141.855 48.3203ZM133.324 54.8125V54.5664C133.324 53.5977 133.441 52.7188 133.676 51.9297C133.918 51.1328 134.258 50.4492 134.695 49.8789C135.141 49.3086 135.68 48.8672 136.312 48.5547C136.945 48.2422 137.66 48.0859 138.457 48.0859C139.301 48.0859 140.008 48.2422 140.578 48.5547C141.148 48.8672 141.617 49.3125 141.984 49.8906C142.352 50.4609 142.637 51.1367 142.84 51.918C143.051 52.6914 143.215 53.5391 143.332 54.4609V55C143.215 55.8828 143.039 56.7031 142.805 57.4609C142.57 58.2188 142.262 58.8828 141.879 59.4531C141.496 60.0156 141.02 60.4531 140.449 60.7656C139.887 61.0781 139.215 61.2344 138.434 61.2344C137.652 61.2344 136.945 61.0742 136.312 60.7539C135.688 60.4336 135.152 59.9844 134.707 59.4062C134.262 58.8281 133.918 58.1484 133.676 57.3672C133.441 56.5859 133.324 55.7344 133.324 54.8125ZM136.699 54.5664V54.8125C136.699 55.3359 136.75 55.8242 136.852 56.2773C136.953 56.7305 137.109 57.1328 137.32 57.4844C137.539 57.8281 137.809 58.0977 138.129 58.293C138.457 58.4805 138.844 58.5742 139.289 58.5742C139.906 58.5742 140.41 58.4453 140.801 58.1875C141.191 57.9219 141.484 57.5586 141.68 57.0977C141.875 56.6367 141.988 56.1055 142.02 55.5039V53.9688C142.004 53.4766 141.938 53.0352 141.82 52.6445C141.703 52.2461 141.539 51.9062 141.328 51.625C141.117 51.3438 140.844 51.125 140.508 50.9688C140.172 50.8125 139.773 50.7344 139.312 50.7344C138.867 50.7344 138.48 50.8359 138.152 51.0391C137.832 51.2344 137.562 51.5039 137.344 51.8477C137.133 52.1914 136.973 52.5977 136.863 53.0664C136.754 53.5273 136.699 54.0273 136.699 54.5664ZM150.844 51.0273V61H147.469V48.3203H150.633L150.844 51.0273ZM150.352 54.2148H149.438C149.438 53.2773 149.559 52.4336 149.801 51.6836C150.043 50.9258 150.383 50.2812 150.82 49.75C151.258 49.2109 151.777 48.8008 152.379 48.5195C152.988 48.2305 153.668 48.0859 154.418 48.0859C155.012 48.0859 155.555 48.1719 156.047 48.3438C156.539 48.5156 156.961 48.7891 157.312 49.1641C157.672 49.5391 157.945 50.0352 158.133 50.6523C158.328 51.2695 158.426 52.0234 158.426 52.9141V61H155.027V52.9023C155.027 52.3398 154.949 51.9023 154.793 51.5898C154.637 51.2773 154.406 51.0586 154.102 50.9336C153.805 50.8008 153.438 50.7344 153 50.7344C152.547 50.7344 152.152 50.8242 151.816 51.0039C151.488 51.1836 151.215 51.4336 150.996 51.7539C150.785 52.0664 150.625 52.4336 150.516 52.8555C150.406 53.2773 150.352 53.7305 150.352 54.2148ZM178.148 58.2578V61H169.559V58.2578H178.148ZM170.695 43.9375V61H167.18V43.9375H170.695ZM186.797 58.1406V52.4922C186.797 52.0859 186.73 51.7383 186.598 51.4492C186.465 51.1523 186.258 50.9219 185.977 50.7578C185.703 50.5938 185.348 50.5117 184.91 50.5117C184.535 50.5117 184.211 50.5781 183.938 50.7109C183.664 50.8359 183.453 51.0195 183.305 51.2617C183.156 51.4961 183.082 51.7734 183.082 52.0938H179.707C179.707 51.5547 179.832 51.043 180.082 50.5586C180.332 50.0742 180.695 49.6484 181.172 49.2812C181.648 48.9062 182.215 48.6133 182.871 48.4023C183.535 48.1914 184.277 48.0859 185.098 48.0859C186.082 48.0859 186.957 48.25 187.723 48.5781C188.488 48.9062 189.09 49.3984 189.527 50.0547C189.973 50.7109 190.195 51.5312 190.195 52.5156V57.9414C190.195 58.6367 190.238 59.207 190.324 59.6523C190.41 60.0898 190.535 60.4727 190.699 60.8008V61H187.289C187.125 60.6562 187 60.2266 186.914 59.7109C186.836 59.1875 186.797 58.6641 186.797 58.1406ZM187.242 53.2773L187.266 55.1875H185.379C184.934 55.1875 184.547 55.2383 184.219 55.3398C183.891 55.4414 183.621 55.5859 183.41 55.7734C183.199 55.9531 183.043 56.1641 182.941 56.4062C182.848 56.6484 182.801 56.9141 182.801 57.2031C182.801 57.4922 182.867 57.7539 183 57.9883C183.133 58.2148 183.324 58.3945 183.574 58.5273C183.824 58.6523 184.117 58.7148 184.453 58.7148C184.961 58.7148 185.402 58.6133 185.777 58.4102C186.152 58.207 186.441 57.957 186.645 57.6602C186.855 57.3633 186.965 57.082 186.973 56.8164L187.863 58.2461C187.738 58.5664 187.566 58.8984 187.348 59.2422C187.137 59.5859 186.867 59.9102 186.539 60.2148C186.211 60.5117 185.816 60.7578 185.355 60.9531C184.895 61.1406 184.348 61.2344 183.715 61.2344C182.91 61.2344 182.18 61.0742 181.523 60.7539C180.875 60.4258 180.359 59.9766 179.977 59.4062C179.602 58.8281 179.414 58.1719 179.414 57.4375C179.414 56.7734 179.539 56.1836 179.789 55.668C180.039 55.1523 180.406 54.7188 180.891 54.3672C181.383 54.0078 181.996 53.7383 182.73 53.5586C183.465 53.3711 184.316 53.2773 185.285 53.2773H187.242ZM196.102 51.0273V61H192.727V48.3203H195.891L196.102 51.0273ZM195.609 54.2148H194.695C194.695 53.2773 194.816 52.4336 195.059 51.6836C195.301 50.9258 195.641 50.2812 196.078 49.75C196.516 49.2109 197.035 48.8008 197.637 48.5195C198.246 48.2305 198.926 48.0859 199.676 48.0859C200.27 48.0859 200.812 48.1719 201.305 48.3438C201.797 48.5156 202.219 48.7891 202.57 49.1641C202.93 49.5391 203.203 50.0352 203.391 50.6523C203.586 51.2695 203.684 52.0234 203.684 52.9141V61H200.285V52.9023C200.285 52.3398 200.207 51.9023 200.051 51.5898C199.895 51.2773 199.664 51.0586 199.359 50.9336C199.062 50.8008 198.695 50.7344 198.258 50.7344C197.805 50.7344 197.41 50.8242 197.074 51.0039C196.746 51.1836 196.473 51.4336 196.254 51.7539C196.043 52.0664 195.883 52.4336 195.773 52.8555C195.664 53.2773 195.609 53.7305 195.609 54.2148ZM214.277 48.3203H217.336V60.5781C217.336 61.7344 217.078 62.7148 216.562 63.5195C216.055 64.332 215.344 64.9453 214.43 65.3594C213.516 65.7812 212.453 65.9922 211.242 65.9922C210.711 65.9922 210.148 65.9219 209.555 65.7812C208.969 65.6406 208.406 65.4219 207.867 65.125C207.336 64.8281 206.891 64.4531 206.531 64L208.02 62.0078C208.41 62.4609 208.863 62.8125 209.379 63.0625C209.895 63.3203 210.465 63.4492 211.09 63.4492C211.699 63.4492 212.215 63.3359 212.637 63.1094C213.059 62.8906 213.383 62.5664 213.609 62.1367C213.836 61.7148 213.949 61.2031 213.949 60.6016V51.25L214.277 48.3203ZM205.746 54.8125V54.5664C205.746 53.5977 205.863 52.7188 206.098 51.9297C206.34 51.1328 206.68 50.4492 207.117 49.8789C207.562 49.3086 208.102 48.8672 208.734 48.5547C209.367 48.2422 210.082 48.0859 210.879 48.0859C211.723 48.0859 212.43 48.2422 213 48.5547C213.57 48.8672 214.039 49.3125 214.406 49.8906C214.773 50.4609 215.059 51.1367 215.262 51.918C215.473 52.6914 215.637 53.5391 215.754 54.4609V55C215.637 55.8828 215.461 56.7031 215.227 57.4609C214.992 58.2188 214.684 58.8828 214.301 59.4531C213.918 60.0156 213.441 60.4531 212.871 60.7656C212.309 61.0781 211.637 61.2344 210.855 61.2344C210.074 61.2344 209.367 61.0742 208.734 60.7539C208.109 60.4336 207.574 59.9844 207.129 59.4062C206.684 58.8281 206.34 58.1484 206.098 57.3672C205.863 56.5859 205.746 55.7344 205.746 54.8125ZM209.121 54.5664V54.8125C209.121 55.3359 209.172 55.8242 209.273 56.2773C209.375 56.7305 209.531 57.1328 209.742 57.4844C209.961 57.8281 210.23 58.0977 210.551 58.293C210.879 58.4805 211.266 58.5742 211.711 58.5742C212.328 58.5742 212.832 58.4453 213.223 58.1875C213.613 57.9219 213.906 57.5586 214.102 57.0977C214.297 56.6367 214.41 56.1055 214.441 55.5039V53.9688C214.426 53.4766 214.359 53.0352 214.242 52.6445C214.125 52.2461 213.961 51.9062 213.75 51.625C213.539 51.3438 213.266 51.125 212.93 50.9688C212.594 50.8125 212.195 50.7344 211.734 50.7344C211.289 50.7344 210.902 50.8359 210.574 51.0391C210.254 51.2344 209.984 51.5039 209.766 51.8477C209.555 52.1914 209.395 52.5977 209.285 53.0664C209.176 53.5273 209.121 54.0273 209.121 54.5664ZM227.461 57.9648V48.3203H230.836V61H227.66L227.461 57.9648ZM227.836 55.3633L228.832 55.3398C228.832 56.1836 228.734 56.9688 228.539 57.6953C228.344 58.4141 228.051 59.0391 227.66 59.5703C227.27 60.0938 226.777 60.5039 226.184 60.8008C225.59 61.0898 224.891 61.2344 224.086 61.2344C223.469 61.2344 222.898 61.1484 222.375 60.9766C221.859 60.7969 221.414 60.5195 221.039 60.1445C220.672 59.7617 220.383 59.2734 220.172 58.6797C219.969 58.0781 219.867 57.3555 219.867 56.5117V48.3203H223.242V56.5352C223.242 56.9102 223.285 57.2266 223.371 57.4844C223.465 57.7422 223.594 57.9531 223.758 58.1172C223.922 58.2812 224.113 58.3984 224.332 58.4688C224.559 58.5391 224.809 58.5742 225.082 58.5742C225.777 58.5742 226.324 58.4336 226.723 58.1523C227.129 57.8711 227.414 57.4883 227.578 57.0039C227.75 56.5117 227.836 55.9648 227.836 55.3633ZM240.258 58.1406V52.4922C240.258 52.0859 240.191 51.7383 240.059 51.4492C239.926 51.1523 239.719 50.9219 239.438 50.7578C239.164 50.5938 238.809 50.5117 238.371 50.5117C237.996 50.5117 237.672 50.5781 237.398 50.7109C237.125 50.8359 236.914 51.0195 236.766 51.2617C236.617 51.4961 236.543 51.7734 236.543 52.0938H233.168C233.168 51.5547 233.293 51.043 233.543 50.5586C233.793 50.0742 234.156 49.6484 234.633 49.2812C235.109 48.9062 235.676 48.6133 236.332 48.4023C236.996 48.1914 237.738 48.0859 238.559 48.0859C239.543 48.0859 240.418 48.25 241.184 48.5781C241.949 48.9062 242.551 49.3984 242.988 50.0547C243.434 50.7109 243.656 51.5312 243.656 52.5156V57.9414C243.656 58.6367 243.699 59.207 243.785 59.6523C243.871 60.0898 243.996 60.4727 244.16 60.8008V61H240.75C240.586 60.6562 240.461 60.2266 240.375 59.7109C240.297 59.1875 240.258 58.6641 240.258 58.1406ZM240.703 53.2773L240.727 55.1875H238.84C238.395 55.1875 238.008 55.2383 237.68 55.3398C237.352 55.4414 237.082 55.5859 236.871 55.7734C236.66 55.9531 236.504 56.1641 236.402 56.4062C236.309 56.6484 236.262 56.9141 236.262 57.2031C236.262 57.4922 236.328 57.7539 236.461 57.9883C236.594 58.2148 236.785 58.3945 237.035 58.5273C237.285 58.6523 237.578 58.7148 237.914 58.7148C238.422 58.7148 238.863 58.6133 239.238 58.4102C239.613 58.207 239.902 57.957 240.105 57.6602C240.316 57.3633 240.426 57.082 240.434 56.8164L241.324 58.2461C241.199 58.5664 241.027 58.8984 240.809 59.2422C240.598 59.5859 240.328 59.9102 240 60.2148C239.672 60.5117 239.277 60.7578 238.816 60.9531C238.355 61.1406 237.809 61.2344 237.176 61.2344C236.371 61.2344 235.641 61.0742 234.984 60.7539C234.336 60.4258 233.82 59.9766 233.438 59.4062C233.062 58.8281 232.875 58.1719 232.875 57.4375C232.875 56.7734 233 56.1836 233.25 55.668C233.5 55.1523 233.867 54.7188 234.352 54.3672C234.844 54.0078 235.457 53.7383 236.191 53.5586C236.926 53.3711 237.777 53.2773 238.746 53.2773H240.703ZM254.285 48.3203H257.344V60.5781C257.344 61.7344 257.086 62.7148 256.57 63.5195C256.062 64.332 255.352 64.9453 254.438 65.3594C253.523 65.7812 252.461 65.9922 251.25 65.9922C250.719 65.9922 250.156 65.9219 249.562 65.7812C248.977 65.6406 248.414 65.4219 247.875 65.125C247.344 64.8281 246.898 64.4531 246.539 64L248.027 62.0078C248.418 62.4609 248.871 62.8125 249.387 63.0625C249.902 63.3203 250.473 63.4492 251.098 63.4492C251.707 63.4492 252.223 63.3359 252.645 63.1094C253.066 62.8906 253.391 62.5664 253.617 62.1367C253.844 61.7148 253.957 61.2031 253.957 60.6016V51.25L254.285 48.3203ZM245.754 54.8125V54.5664C245.754 53.5977 245.871 52.7188 246.105 51.9297C246.348 51.1328 246.688 50.4492 247.125 49.8789C247.57 49.3086 248.109 48.8672 248.742 48.5547C249.375 48.2422 250.09 48.0859 250.887 48.0859C251.73 48.0859 252.438 48.2422 253.008 48.5547C253.578 48.8672 254.047 49.3125 254.414 49.8906C254.781 50.4609 255.066 51.1367 255.27 51.918C255.48 52.6914 255.645 53.5391 255.762 54.4609V55C255.645 55.8828 255.469 56.7031 255.234 57.4609C255 58.2188 254.691 58.8828 254.309 59.4531C253.926 60.0156 253.449 60.4531 252.879 60.7656C252.316 61.0781 251.645 61.2344 250.863 61.2344C250.082 61.2344 249.375 61.0742 248.742 60.7539C248.117 60.4336 247.582 59.9844 247.137 59.4062C246.691 58.8281 246.348 58.1484 246.105 57.3672C245.871 56.5859 245.754 55.7344 245.754 54.8125ZM249.129 54.5664V54.8125C249.129 55.3359 249.18 55.8242 249.281 56.2773C249.383 56.7305 249.539 57.1328 249.75 57.4844C249.969 57.8281 250.238 58.0977 250.559 58.293C250.887 58.4805 251.273 58.5742 251.719 58.5742C252.336 58.5742 252.84 58.4453 253.23 58.1875C253.621 57.9219 253.914 57.5586 254.109 57.0977C254.305 56.6367 254.418 56.1055 254.449 55.5039V53.9688C254.434 53.4766 254.367 53.0352 254.25 52.6445C254.133 52.2461 253.969 51.9062 253.758 51.625C253.547 51.3438 253.273 51.125 252.938 50.9688C252.602 50.8125 252.203 50.7344 251.742 50.7344C251.297 50.7344 250.91 50.8359 250.582 51.0391C250.262 51.2344 249.992 51.5039 249.773 51.8477C249.562 52.1914 249.402 52.5977 249.293 53.0664C249.184 53.5273 249.129 54.0273 249.129 54.5664ZM265.805 61.2344C264.82 61.2344 263.938 61.0781 263.156 60.7656C262.375 60.4453 261.711 60.0039 261.164 59.4414C260.625 58.8789 260.211 58.2266 259.922 57.4844C259.633 56.7344 259.488 55.9375 259.488 55.0938V54.625C259.488 53.6641 259.625 52.7852 259.898 51.9883C260.172 51.1914 260.562 50.5 261.07 49.9141C261.586 49.3281 262.211 48.8789 262.945 48.5664C263.68 48.2461 264.508 48.0859 265.43 48.0859C266.328 48.0859 267.125 48.2344 267.82 48.5312C268.516 48.8281 269.098 49.25 269.566 49.7969C270.043 50.3438 270.402 51 270.645 51.7656C270.887 52.5234 271.008 53.3672 271.008 54.2969V55.7031H260.93V53.4531H267.691V53.1953C267.691 52.7266 267.605 52.3086 267.434 51.9414C267.27 51.5664 267.02 51.2695 266.684 51.0508C266.348 50.832 265.918 50.7227 265.395 50.7227C264.949 50.7227 264.566 50.8203 264.246 51.0156C263.926 51.2109 263.664 51.4844 263.461 51.8359C263.266 52.1875 263.117 52.6016 263.016 53.0781C262.922 53.5469 262.875 54.0625 262.875 54.625V55.0938C262.875 55.6016 262.945 56.0703 263.086 56.5C263.234 56.9297 263.441 57.3008 263.707 57.6133C263.98 57.9258 264.309 58.168 264.691 58.3398C265.082 58.5117 265.523 58.5977 266.016 58.5977C266.625 58.5977 267.191 58.4805 267.715 58.2461C268.246 58.0039 268.703 57.6406 269.086 57.1562L270.727 58.9375C270.461 59.3203 270.098 59.6875 269.637 60.0391C269.184 60.3906 268.637 60.6797 267.996 60.9062C267.355 61.125 266.625 61.2344 265.805 61.2344ZM282.855 43.9375V61H279.352V43.9375H282.855ZM289.242 51.0273V61H285.867V48.3203H289.031L289.242 51.0273ZM288.75 54.2148H287.836C287.836 53.2773 287.957 52.4336 288.199 51.6836C288.441 50.9258 288.781 50.2812 289.219 49.75C289.656 49.2109 290.176 48.8008 290.777 48.5195C291.387 48.2305 292.066 48.0859 292.816 48.0859C293.41 48.0859 293.953 48.1719 294.445 48.3438C294.938 48.5156 295.359 48.7891 295.711 49.1641C296.07 49.5391 296.344 50.0352 296.531 50.6523C296.727 51.2695 296.824 52.0234 296.824 52.9141V61H293.426V52.9023C293.426 52.3398 293.348 51.9023 293.191 51.5898C293.035 51.2773 292.805 51.0586 292.5 50.9336C292.203 50.8008 291.836 50.7344 291.398 50.7344C290.945 50.7344 290.551 50.8242 290.215 51.0039C289.887 51.1836 289.613 51.4336 289.395 51.7539C289.184 52.0664 289.023 52.4336 288.914 52.8555C288.805 53.2773 288.75 53.7305 288.75 54.2148ZM305.602 48.3203V50.7109H298.219V48.3203H305.602ZM300.047 45.1914H303.422V57.1797C303.422 57.5469 303.469 57.8281 303.562 58.0234C303.664 58.2188 303.812 58.3555 304.008 58.4336C304.203 58.5039 304.449 58.5391 304.746 58.5391C304.957 58.5391 305.145 58.5312 305.309 58.5156C305.48 58.4922 305.625 58.4688 305.742 58.4453L305.754 60.9297C305.465 61.0234 305.152 61.0977 304.816 61.1523C304.48 61.207 304.109 61.2344 303.703 61.2344C302.961 61.2344 302.312 61.1133 301.758 60.8711C301.211 60.6211 300.789 60.2227 300.492 59.6758C300.195 59.1289 300.047 58.4102 300.047 57.5195V45.1914ZM313.359 61.2344C312.375 61.2344 311.492 61.0781 310.711 60.7656C309.93 60.4453 309.266 60.0039 308.719 59.4414C308.18 58.8789 307.766 58.2266 307.477 57.4844C307.188 56.7344 307.043 55.9375 307.043 55.0938V54.625C307.043 53.6641 307.18 52.7852 307.453 51.9883C307.727 51.1914 308.117 50.5 308.625 49.9141C309.141 49.3281 309.766 48.8789 310.5 48.5664C311.234 48.2461 312.062 48.0859 312.984 48.0859C313.883 48.0859 314.68 48.2344 315.375 48.5312C316.07 48.8281 316.652 49.25 317.121 49.7969C317.598 50.3438 317.957 51 318.199 51.7656C318.441 52.5234 318.562 53.3672 318.562 54.2969V55.7031H308.484V53.4531H315.246V53.1953C315.246 52.7266 315.16 52.3086 314.988 51.9414C314.824 51.5664 314.574 51.2695 314.238 51.0508C313.902 50.832 313.473 50.7227 312.949 50.7227C312.504 50.7227 312.121 50.8203 311.801 51.0156C311.48 51.2109 311.219 51.4844 311.016 51.8359C310.82 52.1875 310.672 52.6016 310.57 53.0781C310.477 53.5469 310.43 54.0625 310.43 54.625V55.0938C310.43 55.6016 310.5 56.0703 310.641 56.5C310.789 56.9297 310.996 57.3008 311.262 57.6133C311.535 57.9258 311.863 58.168 312.246 58.3398C312.637 58.5117 313.078 58.5977 313.57 58.5977C314.18 58.5977 314.746 58.4805 315.27 58.2461C315.801 58.0039 316.258 57.6406 316.641 57.1562L318.281 58.9375C318.016 59.3203 317.652 59.6875 317.191 60.0391C316.738 60.3906 316.191 60.6797 315.551 60.9062C314.91 61.125 314.18 61.2344 313.359 61.2344ZM323.859 51.0859V61H320.484V48.3203H323.66L323.859 51.0859ZM327.68 48.2383L327.621 51.3672C327.457 51.3438 327.258 51.3242 327.023 51.3086C326.797 51.2852 326.59 51.2734 326.402 51.2734C325.926 51.2734 325.512 51.3359 325.16 51.4609C324.816 51.5781 324.527 51.7539 324.293 51.9883C324.066 52.2227 323.895 52.5078 323.777 52.8438C323.668 53.1797 323.605 53.5625 323.59 53.9922L322.91 53.7812C322.91 52.9609 322.992 52.207 323.156 51.5195C323.32 50.8242 323.559 50.2188 323.871 49.7031C324.191 49.1875 324.582 48.7891 325.043 48.5078C325.504 48.2266 326.031 48.0859 326.625 48.0859C326.812 48.0859 327.004 48.1016 327.199 48.1328C327.395 48.1562 327.555 48.1914 327.68 48.2383ZM332.648 50.7578V65.875H329.273V48.3203H332.402L332.648 50.7578ZM340.676 54.5195V54.7656C340.676 55.6875 340.566 56.543 340.348 57.332C340.137 58.1211 339.824 58.8086 339.41 59.3945C338.996 59.9727 338.48 60.4258 337.863 60.7539C337.254 61.0742 336.551 61.2344 335.754 61.2344C334.98 61.2344 334.309 61.0781 333.738 60.7656C333.168 60.4531 332.688 60.0156 332.297 59.4531C331.914 58.8828 331.605 58.2227 331.371 57.4727C331.137 56.7227 330.957 55.918 330.832 55.0586V54.4141C330.957 53.4922 331.137 52.6484 331.371 51.8828C331.605 51.1094 331.914 50.4414 332.297 49.8789C332.688 49.3086 333.164 48.8672 333.727 48.5547C334.297 48.2422 334.965 48.0859 335.73 48.0859C336.535 48.0859 337.242 48.2383 337.852 48.543C338.469 48.8477 338.984 49.2852 339.398 49.8555C339.82 50.4258 340.137 51.1055 340.348 51.8945C340.566 52.6836 340.676 53.5586 340.676 54.5195ZM337.289 54.7656V54.5195C337.289 53.9805 337.242 53.4844 337.148 53.0312C337.062 52.5703 336.922 52.168 336.727 51.8242C336.539 51.4805 336.289 51.2148 335.977 51.0273C335.672 50.832 335.301 50.7344 334.863 50.7344C334.402 50.7344 334.008 50.8086 333.68 50.957C333.359 51.1055 333.098 51.3203 332.895 51.6016C332.691 51.8828 332.539 52.2188 332.438 52.6094C332.336 53 332.273 53.4414 332.25 53.9336V55.5625C332.289 56.1406 332.398 56.6602 332.578 57.1211C332.758 57.5742 333.035 57.9336 333.41 58.1992C333.785 58.4648 334.277 58.5977 334.887 58.5977C335.332 58.5977 335.707 58.5 336.012 58.3047C336.316 58.1016 336.562 57.8242 336.75 57.4727C336.945 57.1211 337.082 56.7148 337.16 56.2539C337.246 55.793 337.289 55.2969 337.289 54.7656ZM346.148 51.0859V61H342.773V48.3203H345.949L346.148 51.0859ZM349.969 48.2383L349.91 51.3672C349.746 51.3438 349.547 51.3242 349.312 51.3086C349.086 51.2852 348.879 51.2734 348.691 51.2734C348.215 51.2734 347.801 51.3359 347.449 51.4609C347.105 51.5781 346.816 51.7539 346.582 51.9883C346.355 52.2227 346.184 52.5078 346.066 52.8438C345.957 53.1797 345.895 53.5625 345.879 53.9922L345.199 53.7812C345.199 52.9609 345.281 52.207 345.445 51.5195C345.609 50.8242 345.848 50.2188 346.16 49.7031C346.48 49.1875 346.871 48.7891 347.332 48.5078C347.793 48.2266 348.32 48.0859 348.914 48.0859C349.102 48.0859 349.293 48.1016 349.488 48.1328C349.684 48.1562 349.844 48.1914 349.969 48.2383ZM357.164 61.2344C356.18 61.2344 355.297 61.0781 354.516 60.7656C353.734 60.4453 353.07 60.0039 352.523 59.4414C351.984 58.8789 351.57 58.2266 351.281 57.4844C350.992 56.7344 350.848 55.9375 350.848 55.0938V54.625C350.848 53.6641 350.984 52.7852 351.258 51.9883C351.531 51.1914 351.922 50.5 352.43 49.9141C352.945 49.3281 353.57 48.8789 354.305 48.5664C355.039 48.2461 355.867 48.0859 356.789 48.0859C357.688 48.0859 358.484 48.2344 359.18 48.5312C359.875 48.8281 360.457 49.25 360.926 49.7969C361.402 50.3438 361.762 51 362.004 51.7656C362.246 52.5234 362.367 53.3672 362.367 54.2969V55.7031H352.289V53.4531H359.051V53.1953C359.051 52.7266 358.965 52.3086 358.793 51.9414C358.629 51.5664 358.379 51.2695 358.043 51.0508C357.707 50.832 357.277 50.7227 356.754 50.7227C356.309 50.7227 355.926 50.8203 355.605 51.0156C355.285 51.2109 355.023 51.4844 354.82 51.8359C354.625 52.1875 354.477 52.6016 354.375 53.0781C354.281 53.5469 354.234 54.0625 354.234 54.625V55.0938C354.234 55.6016 354.305 56.0703 354.445 56.5C354.594 56.9297 354.801 57.3008 355.066 57.6133C355.34 57.9258 355.668 58.168 356.051 58.3398C356.441 58.5117 356.883 58.5977 357.375 58.5977C357.984 58.5977 358.551 58.4805 359.074 58.2461C359.605 58.0039 360.062 57.6406 360.445 57.1562L362.086 58.9375C361.82 59.3203 361.457 59.6875 360.996 60.0391C360.543 60.3906 359.996 60.6797 359.355 60.9062C358.715 61.125 357.984 61.2344 357.164 61.2344ZM370.5 48.3203V50.7109H363.117V48.3203H370.5ZM364.945 45.1914H368.32V57.1797C368.32 57.5469 368.367 57.8281 368.461 58.0234C368.562 58.2188 368.711 58.3555 368.906 58.4336C369.102 58.5039 369.348 58.5391 369.645 58.5391C369.855 58.5391 370.043 58.5312 370.207 58.5156C370.379 58.4922 370.523 58.4688 370.641 58.4453L370.652 60.9297C370.363 61.0234 370.051 61.0977 369.715 61.1523C369.379 61.207 369.008 61.2344 368.602 61.2344C367.859 61.2344 367.211 61.1133 366.656 60.8711C366.109 60.6211 365.688 60.2227 365.391 59.6758C365.094 59.1289 364.945 58.4102 364.945 57.5195V45.1914ZM378.258 61.2344C377.273 61.2344 376.391 61.0781 375.609 60.7656C374.828 60.4453 374.164 60.0039 373.617 59.4414C373.078 58.8789 372.664 58.2266 372.375 57.4844C372.086 56.7344 371.941 55.9375 371.941 55.0938V54.625C371.941 53.6641 372.078 52.7852 372.352 51.9883C372.625 51.1914 373.016 50.5 373.523 49.9141C374.039 49.3281 374.664 48.8789 375.398 48.5664C376.133 48.2461 376.961 48.0859 377.883 48.0859C378.781 48.0859 379.578 48.2344 380.273 48.5312C380.969 48.8281 381.551 49.25 382.02 49.7969C382.496 50.3438 382.855 51 383.098 51.7656C383.34 52.5234 383.461 53.3672 383.461 54.2969V55.7031H373.383V53.4531H380.145V53.1953C380.145 52.7266 380.059 52.3086 379.887 51.9414C379.723 51.5664 379.473 51.2695 379.137 51.0508C378.801 50.832 378.371 50.7227 377.848 50.7227C377.402 50.7227 377.02 50.8203 376.699 51.0156C376.379 51.2109 376.117 51.4844 375.914 51.8359C375.719 52.1875 375.57 52.6016 375.469 53.0781C375.375 53.5469 375.328 54.0625 375.328 54.625V55.0938C375.328 55.6016 375.398 56.0703 375.539 56.5C375.688 56.9297 375.895 57.3008 376.16 57.6133C376.434 57.9258 376.762 58.168 377.145 58.3398C377.535 58.5117 377.977 58.5977 378.469 58.5977C379.078 58.5977 379.645 58.4805 380.168 58.2461C380.699 58.0039 381.156 57.6406 381.539 57.1562L383.18 58.9375C382.914 59.3203 382.551 59.6875 382.09 60.0391C381.637 60.3906 381.09 60.6797 380.449 60.9062C379.809 61.125 379.078 61.2344 378.258 61.2344ZM388.758 51.0859V61H385.383V48.3203H388.559L388.758 51.0859ZM392.578 48.2383L392.52 51.3672C392.355 51.3438 392.156 51.3242 391.922 51.3086C391.695 51.2852 391.488 51.2734 391.301 51.2734C390.824 51.2734 390.41 51.3359 390.059 51.4609C389.715 51.5781 389.426 51.7539 389.191 51.9883C388.965 52.2227 388.793 52.5078 388.676 52.8438C388.566 53.1797 388.504 53.5625 388.488 53.9922L387.809 53.7812C387.809 52.9609 387.891 52.207 388.055 51.5195C388.219 50.8242 388.457 50.2188 388.77 49.7031C389.09 49.1875 389.48 48.7891 389.941 48.5078C390.402 48.2266 390.93 48.0859 391.523 48.0859C391.711 48.0859 391.902 48.1016 392.098 48.1328C392.293 48.1562 392.453 48.1914 392.578 48.2383Z" fill="#888888"/>
<path d="M109.219 107.422H100.734V101.07H109.219C110.375 101.07 111.312 100.875 112.031 100.484C112.75 100.094 113.273 99.5547 113.602 98.8672C113.945 98.1641 114.117 97.375 114.117 96.5C114.117 95.5625 113.945 94.6953 113.602 93.8984C113.273 93.1016 112.75 92.4609 112.031 91.9766C111.312 91.4766 110.375 91.2266 109.219 91.2266H103.828V119H95.6016V84.875H109.219C111.953 84.875 114.305 85.375 116.273 86.375C118.258 87.375 119.781 88.75 120.844 90.5C121.906 92.2344 122.438 94.2188 122.438 96.4531C122.438 98.6562 121.906 100.578 120.844 102.219C119.781 103.859 118.258 105.141 116.273 106.062C114.305 106.969 111.953 107.422 109.219 107.422ZM134.461 99.9219V119H126.562V93.6406H133.945L134.461 99.9219ZM141.961 93.4531L141.82 100.789C141.508 100.758 141.086 100.719 140.555 100.672C140.023 100.625 139.578 100.602 139.219 100.602C138.297 100.602 137.5 100.711 136.828 100.93C136.172 101.133 135.625 101.445 135.188 101.867C134.766 102.273 134.453 102.789 134.25 103.414C134.062 104.039 133.977 104.766 133.992 105.594L132.562 104.656C132.562 102.953 132.727 101.406 133.055 100.016C133.398 98.6094 133.883 97.3984 134.508 96.3828C135.133 95.3516 135.891 94.5625 136.781 94.0156C137.672 93.4531 138.672 93.1719 139.781 93.1719C140.172 93.1719 140.555 93.1953 140.93 93.2422C141.32 93.2891 141.664 93.3594 141.961 93.4531ZM142.852 106.578V106.086C142.852 104.227 143.117 102.516 143.648 100.953C144.18 99.375 144.961 98.0078 145.992 96.8516C147.023 95.6953 148.297 94.7969 149.812 94.1562C151.328 93.5 153.078 93.1719 155.062 93.1719C157.062 93.1719 158.82 93.5 160.336 94.1562C161.867 94.7969 163.148 95.6953 164.18 96.8516C165.211 98.0078 165.992 99.375 166.523 100.953C167.055 102.516 167.32 104.227 167.32 106.086V106.578C167.32 108.422 167.055 110.133 166.523 111.711C165.992 113.273 165.211 114.641 164.18 115.812C163.148 116.969 161.875 117.867 160.359 118.508C158.844 119.148 157.094 119.469 155.109 119.469C153.125 119.469 151.367 119.148 149.836 118.508C148.305 117.867 147.023 116.969 145.992 115.812C144.961 114.641 144.18 113.273 143.648 111.711C143.117 110.133 142.852 108.422 142.852 106.578ZM150.75 106.086V106.578C150.75 107.531 150.82 108.422 150.961 109.25C151.102 110.078 151.336 110.805 151.664 111.43C151.992 112.039 152.438 112.516 153 112.859C153.562 113.203 154.266 113.375 155.109 113.375C155.938 113.375 156.625 113.203 157.172 112.859C157.734 112.516 158.18 112.039 158.508 111.43C158.836 110.805 159.07 110.078 159.211 109.25C159.352 108.422 159.422 107.531 159.422 106.578V106.086C159.422 105.164 159.352 104.297 159.211 103.484C159.07 102.656 158.836 101.93 158.508 101.305C158.18 100.664 157.734 100.164 157.172 99.8047C156.609 99.4453 155.906 99.2656 155.062 99.2656C154.234 99.2656 153.539 99.4453 152.977 99.8047C152.43 100.164 151.992 100.664 151.664 101.305C151.336 101.93 151.102 102.656 150.961 103.484C150.82 104.297 150.75 105.164 150.75 106.086ZM171.422 93.6406H179.344V119.82C179.344 121.852 178.953 123.562 178.172 124.953C177.391 126.359 176.273 127.422 174.82 128.141C173.367 128.875 171.633 129.242 169.617 129.242C168.945 129.242 168.328 129.211 167.766 129.148C167.188 129.102 166.555 129 165.867 128.844V122.867C166.273 122.93 166.648 122.977 166.992 123.008C167.336 123.055 167.711 123.078 168.117 123.078C168.836 123.078 169.438 122.961 169.922 122.727C170.406 122.492 170.773 122.133 171.023 121.648C171.289 121.164 171.422 120.555 171.422 119.82V93.6406ZM170.836 87.1016C170.836 85.9766 171.242 85.0547 172.055 84.3359C172.867 83.6172 173.922 83.2578 175.219 83.2578C176.516 83.2578 177.57 83.6172 178.383 84.3359C179.195 85.0547 179.602 85.9766 179.602 87.1016C179.602 88.2266 179.195 89.1484 178.383 89.8672C177.57 90.5859 176.516 90.9453 175.219 90.9453C173.922 90.9453 172.867 90.5859 172.055 89.8672C171.242 89.1484 170.836 88.2266 170.836 87.1016ZM196.102 119.469C194.039 119.469 192.195 119.148 190.57 118.508C188.945 117.852 187.57 116.953 186.445 115.812C185.336 114.672 184.484 113.359 183.891 111.875C183.312 110.391 183.023 108.82 183.023 107.164V106.273C183.023 104.414 183.281 102.695 183.797 101.117C184.312 99.5234 185.078 98.1328 186.094 96.9453C187.109 95.7578 188.383 94.8359 189.914 94.1797C191.445 93.5078 193.227 93.1719 195.258 93.1719C197.055 93.1719 198.664 93.4609 200.086 94.0391C201.508 94.6172 202.711 95.4453 203.695 96.5234C204.695 97.6016 205.453 98.9062 205.969 100.438C206.5 101.969 206.766 103.688 206.766 105.594V108.805H186.047V103.859H199.055V103.25C199.07 102.406 198.922 101.688 198.609 101.094C198.312 100.5 197.875 100.047 197.297 99.7344C196.719 99.4219 196.016 99.2656 195.188 99.2656C194.328 99.2656 193.617 99.4531 193.055 99.8281C192.508 100.203 192.078 100.719 191.766 101.375C191.469 102.016 191.258 102.758 191.133 103.602C191.008 104.445 190.945 105.336 190.945 106.273V107.164C190.945 108.102 191.07 108.953 191.32 109.719C191.586 110.484 191.961 111.141 192.445 111.688C192.945 112.219 193.539 112.633 194.227 112.93C194.93 113.227 195.727 113.375 196.617 113.375C197.695 113.375 198.758 113.172 199.805 112.766C200.852 112.359 201.75 111.688 202.5 110.75L206.086 115.016C205.57 115.75 204.836 116.461 203.883 117.148C202.945 117.836 201.82 118.398 200.508 118.836C199.195 119.258 197.727 119.469 196.102 119.469ZM220.688 113.375C221.422 113.375 222.047 113.242 222.562 112.977C223.094 112.695 223.492 112.305 223.758 111.805C224.039 111.289 224.172 110.672 224.156 109.953H231.586C231.602 111.859 231.133 113.531 230.18 114.969C229.242 116.391 227.961 117.5 226.336 118.297C224.727 119.078 222.906 119.469 220.875 119.469C218.891 119.469 217.156 119.148 215.672 118.508C214.188 117.852 212.945 116.945 211.945 115.789C210.961 114.617 210.219 113.25 209.719 111.688C209.234 110.125 208.992 108.43 208.992 106.602V106.062C208.992 104.234 209.234 102.539 209.719 100.977C210.219 99.3984 210.961 98.0312 211.945 96.875C212.945 95.7031 214.18 94.7969 215.648 94.1562C217.133 93.5 218.859 93.1719 220.828 93.1719C222.938 93.1719 224.797 93.5703 226.406 94.3672C228.031 95.1641 229.305 96.3203 230.227 97.8359C231.148 99.3516 231.602 101.188 231.586 103.344H224.156C224.172 102.578 224.055 101.891 223.805 101.281C223.555 100.672 223.164 100.188 222.633 99.8281C222.117 99.4531 221.453 99.2656 220.641 99.2656C219.828 99.2656 219.172 99.4453 218.672 99.8047C218.172 100.164 217.789 100.664 217.523 101.305C217.273 101.93 217.102 102.648 217.008 103.461C216.93 104.273 216.891 105.141 216.891 106.062V106.602C216.891 107.539 216.93 108.422 217.008 109.25C217.102 110.062 217.281 110.781 217.547 111.406C217.812 112.016 218.195 112.5 218.695 112.859C219.195 113.203 219.859 113.375 220.688 113.375ZM248.32 93.6406V99.125H233.039V93.6406H248.32ZM236.25 87.3359H244.148V110.727C244.148 111.398 244.227 111.922 244.383 112.297C244.539 112.656 244.805 112.914 245.18 113.07C245.57 113.211 246.086 113.281 246.727 113.281C247.18 113.281 247.555 113.273 247.852 113.258C248.148 113.227 248.43 113.188 248.695 113.141V118.789C248.023 119.008 247.32 119.172 246.586 119.281C245.852 119.406 245.07 119.469 244.242 119.469C242.555 119.469 241.109 119.203 239.906 118.672C238.719 118.141 237.812 117.305 237.188 116.164C236.562 115.023 236.25 113.539 236.25 111.711V87.3359ZM277.406 107.422H268.922V101.07H277.406C278.562 101.07 279.5 100.875 280.219 100.484C280.938 100.094 281.461 99.5547 281.789 98.8672C282.133 98.1641 282.305 97.375 282.305 96.5C282.305 95.5625 282.133 94.6953 281.789 93.8984C281.461 93.1016 280.938 92.4609 280.219 91.9766C279.5 91.4766 278.562 91.2266 277.406 91.2266H272.016V119H263.789V84.875H277.406C280.141 84.875 282.492 85.375 284.461 86.375C286.445 87.375 287.969 88.75 289.031 90.5C290.094 92.2344 290.625 94.2188 290.625 96.4531C290.625 98.6562 290.094 100.578 289.031 102.219C287.969 103.859 286.445 105.141 284.461 106.062C282.492 106.969 280.141 107.422 277.406 107.422ZM302.414 83V119H294.516V83H302.414ZM301.477 105.453L299.625 105.5C299.625 103.719 299.844 102.078 300.281 100.578C300.719 99.0781 301.344 97.7734 302.156 96.6641C302.969 95.5547 303.945 94.6953 305.086 94.0859C306.227 93.4766 307.492 93.1719 308.883 93.1719C310.133 93.1719 311.273 93.3516 312.305 93.7109C313.352 94.0703 314.25 94.6484 315 95.4453C315.766 96.2422 316.352 97.2812 316.758 98.5625C317.18 99.8438 317.391 101.406 317.391 103.25V119H309.445V103.203C309.445 102.172 309.297 101.375 309 100.812C308.719 100.234 308.312 99.8359 307.781 99.6172C307.25 99.3828 306.602 99.2656 305.836 99.2656C304.914 99.2656 304.164 99.4219 303.586 99.7344C303.008 100.047 302.562 100.484 302.25 101.047C301.953 101.594 301.75 102.242 301.641 102.992C301.531 103.742 301.477 104.562 301.477 105.453ZM330.117 93.6406V119H322.195V93.6406H330.117ZM321.727 87.1016C321.727 85.9766 322.133 85.0547 322.945 84.3359C323.758 83.6172 324.812 83.2578 326.109 83.2578C327.406 83.2578 328.461 83.6172 329.273 84.3359C330.086 85.0547 330.492 85.9766 330.492 87.1016C330.492 88.2266 330.086 89.1484 329.273 89.8672C328.461 90.5859 327.406 90.9453 326.109 90.9453C324.812 90.9453 323.758 90.5859 322.945 89.8672C322.133 89.1484 321.727 88.2266 321.727 87.1016ZM343.336 83V119H335.414V83H343.336ZM347.227 106.578V106.086C347.227 104.227 347.492 102.516 348.023 100.953C348.555 99.375 349.336 98.0078 350.367 96.8516C351.398 95.6953 352.672 94.7969 354.188 94.1562C355.703 93.5 357.453 93.1719 359.438 93.1719C361.438 93.1719 363.195 93.5 364.711 94.1562C366.242 94.7969 367.523 95.6953 368.555 96.8516C369.586 98.0078 370.367 99.375 370.898 100.953C371.43 102.516 371.695 104.227 371.695 106.086V106.578C371.695 108.422 371.43 110.133 370.898 111.711C370.367 113.273 369.586 114.641 368.555 115.812C367.523 116.969 366.25 117.867 364.734 118.508C363.219 119.148 361.469 119.469 359.484 119.469C357.5 119.469 355.742 119.148 354.211 118.508C352.68 117.867 351.398 116.969 350.367 115.812C349.336 114.641 348.555 113.273 348.023 111.711C347.492 110.133 347.227 108.422 347.227 106.578ZM355.125 106.086V106.578C355.125 107.531 355.195 108.422 355.336 109.25C355.477 110.078 355.711 110.805 356.039 111.43C356.367 112.039 356.812 112.516 357.375 112.859C357.938 113.203 358.641 113.375 359.484 113.375C360.312 113.375 361 113.203 361.547 112.859C362.109 112.516 362.555 112.039 362.883 111.43C363.211 110.805 363.445 110.078 363.586 109.25C363.727 108.422 363.797 107.531 363.797 106.578V106.086C363.797 105.164 363.727 104.297 363.586 103.484C363.445 102.656 363.211 101.93 362.883 101.305C362.555 100.664 362.109 100.164 361.547 99.8047C360.984 99.4453 360.281 99.2656 359.438 99.2656C358.609 99.2656 357.914 99.4453 357.352 99.8047C356.805 100.164 356.367 100.664 356.039 101.305C355.711 101.93 355.477 102.656 355.336 103.484C355.195 104.297 355.125 105.164 355.125 106.086ZM388.5 111.875C388.5 111.438 388.352 111.062 388.055 110.75C387.773 110.422 387.273 110.125 386.555 109.859C385.836 109.578 384.828 109.297 383.531 109.016C382.297 108.75 381.133 108.398 380.039 107.961C378.961 107.523 378.016 106.992 377.203 106.367C376.391 105.742 375.75 105 375.281 104.141C374.828 103.281 374.602 102.297 374.602 101.188C374.602 100.109 374.828 99.0938 375.281 98.1406C375.75 97.1719 376.43 96.3203 377.32 95.5859C378.227 94.8359 379.328 94.25 380.625 93.8281C381.922 93.3906 383.398 93.1719 385.055 93.1719C387.336 93.1719 389.305 93.5234 390.961 94.2266C392.617 94.9141 393.891 95.8828 394.781 97.1328C395.688 98.3672 396.141 99.7969 396.141 101.422H388.242C388.242 100.781 388.133 100.234 387.914 99.7812C387.711 99.3281 387.375 98.9844 386.906 98.75C386.438 98.5 385.812 98.375 385.031 98.375C384.484 98.375 383.984 98.4766 383.531 98.6797C383.094 98.8828 382.742 99.1641 382.477 99.5234C382.211 99.8828 382.078 100.305 382.078 100.789C382.078 101.133 382.156 101.445 382.312 101.727C382.484 101.992 382.742 102.242 383.086 102.477C383.43 102.695 383.867 102.898 384.398 103.086C384.93 103.258 385.57 103.414 386.32 103.555C388.023 103.867 389.617 104.312 391.102 104.891C392.586 105.469 393.789 106.289 394.711 107.352C395.648 108.414 396.117 109.844 396.117 111.641C396.117 112.766 395.859 113.805 395.344 114.758C394.828 115.695 394.086 116.523 393.117 117.242C392.148 117.945 390.984 118.492 389.625 118.883C388.266 119.273 386.734 119.469 385.031 119.469C382.609 119.469 380.562 119.039 378.891 118.18C377.219 117.305 375.953 116.211 375.094 114.898C374.25 113.57 373.828 112.227 373.828 110.867H381.188C381.219 111.648 381.406 112.289 381.75 112.789C382.109 113.289 382.586 113.656 383.18 113.891C383.773 114.125 384.461 114.242 385.242 114.242C385.961 114.242 386.555 114.141 387.023 113.938C387.508 113.734 387.875 113.461 388.125 113.117C388.375 112.758 388.5 112.344 388.5 111.875ZM398.836 106.578V106.086C398.836 104.227 399.102 102.516 399.633 100.953C400.164 99.375 400.945 98.0078 401.977 96.8516C403.008 95.6953 404.281 94.7969 405.797 94.1562C407.312 93.5 409.062 93.1719 411.047 93.1719C413.047 93.1719 414.805 93.5 416.32 94.1562C417.852 94.7969 419.133 95.6953 420.164 96.8516C421.195 98.0078 421.977 99.375 422.508 100.953C423.039 102.516 423.305 104.227 423.305 106.086V106.578C423.305 108.422 423.039 110.133 422.508 111.711C421.977 113.273 421.195 114.641 420.164 115.812C419.133 116.969 417.859 117.867 416.344 118.508C414.828 119.148 413.078 119.469 411.094 119.469C409.109 119.469 407.352 119.148 405.82 118.508C404.289 117.867 403.008 116.969 401.977 115.812C400.945 114.641 400.164 113.273 399.633 111.711C399.102 110.133 398.836 108.422 398.836 106.578ZM406.734 106.086V106.578C406.734 107.531 406.805 108.422 406.945 109.25C407.086 110.078 407.32 110.805 407.648 111.43C407.977 112.039 408.422 112.516 408.984 112.859C409.547 113.203 410.25 113.375 411.094 113.375C411.922 113.375 412.609 113.203 413.156 112.859C413.719 112.516 414.164 112.039 414.492 111.43C414.82 110.805 415.055 110.078 415.195 109.25C415.336 108.422 415.406 107.531 415.406 106.578V106.086C415.406 105.164 415.336 104.297 415.195 103.484C415.055 102.656 414.82 101.93 414.492 101.305C414.164 100.664 413.719 100.164 413.156 99.8047C412.594 99.4453 411.891 99.2656 411.047 99.2656C410.219 99.2656 409.523 99.4453 408.961 99.8047C408.414 100.164 407.977 100.664 407.648 101.305C407.32 101.93 407.086 102.656 406.945 103.484C406.805 104.297 406.734 105.164 406.734 106.086ZM434.789 98.5156V128.75H426.891V93.6406H434.25L434.789 98.5156ZM450.352 106.016V106.508C450.352 108.352 450.141 110.062 449.719 111.641C449.297 113.219 448.672 114.594 447.844 115.766C447.016 116.938 445.984 117.852 444.75 118.508C443.531 119.148 442.117 119.469 440.508 119.469C438.992 119.469 437.688 119.133 436.594 118.461C435.5 117.789 434.586 116.859 433.852 115.672C433.117 114.484 432.523 113.125 432.07 111.594C431.617 110.062 431.258 108.445 430.992 106.742V106.109C431.258 104.281 431.617 102.586 432.07 101.023C432.523 99.4453 433.117 98.0703 433.852 96.8984C434.586 95.7266 435.492 94.8125 436.57 94.1562C437.664 93.5 438.969 93.1719 440.484 93.1719C442.094 93.1719 443.508 93.4766 444.727 94.0859C445.961 94.6953 446.992 95.5703 447.82 96.7109C448.664 97.8359 449.297 99.1875 449.719 100.766C450.141 102.344 450.352 104.094 450.352 106.016ZM442.453 106.508V106.016C442.453 105.031 442.383 104.133 442.242 103.32C442.102 102.492 441.875 101.773 441.562 101.164C441.266 100.555 440.867 100.086 440.367 99.7578C439.867 99.4297 439.25 99.2656 438.516 99.2656C437.672 99.2656 436.961 99.3984 436.383 99.6641C435.82 99.9141 435.367 100.305 435.023 100.836C434.695 101.352 434.461 102 434.32 102.781C434.195 103.547 434.141 104.445 434.156 105.477V107.398C434.125 108.586 434.242 109.633 434.508 110.539C434.773 111.43 435.234 112.125 435.891 112.625C436.547 113.125 437.438 113.375 438.562 113.375C439.312 113.375 439.938 113.203 440.438 112.859C440.938 112.5 441.336 112.008 441.633 111.383C441.93 110.742 442.141 110.008 442.266 109.18C442.391 108.352 442.453 107.461 442.453 106.508ZM461.602 83V119H453.703V83H461.602ZM460.664 105.453L458.812 105.5C458.812 103.719 459.031 102.078 459.469 100.578C459.906 99.0781 460.531 97.7734 461.344 96.6641C462.156 95.5547 463.133 94.6953 464.273 94.0859C465.414 93.4766 466.68 93.1719 468.07 93.1719C469.32 93.1719 470.461 93.3516 471.492 93.7109C472.539 94.0703 473.438 94.6484 474.188 95.4453C474.953 96.2422 475.539 97.2812 475.945 98.5625C476.367 99.8438 476.578 101.406 476.578 103.25V119H468.633V103.203C468.633 102.172 468.484 101.375 468.188 100.812C467.906 100.234 467.5 99.8359 466.969 99.6172C466.438 99.3828 465.789 99.2656 465.023 99.2656C464.102 99.2656 463.352 99.4219 462.773 99.7344C462.195 100.047 461.75 100.484 461.438 101.047C461.141 101.594 460.938 102.242 460.828 102.992C460.719 103.742 460.664 104.562 460.664 105.453ZM488.742 116.023L495.305 93.6406H503.789L493.594 122.773C493.375 123.414 493.086 124.102 492.727 124.836C492.367 125.586 491.875 126.297 491.25 126.969C490.625 127.641 489.82 128.188 488.836 128.609C487.867 129.031 486.664 129.242 485.227 129.242C484.461 129.242 483.898 129.203 483.539 129.125C483.195 129.062 482.664 128.945 481.945 128.773V123.125C482.148 123.125 482.32 123.125 482.461 123.125C482.617 123.125 482.789 123.125 482.977 123.125C483.82 123.125 484.492 123.039 484.992 122.867C485.508 122.695 485.898 122.445 486.164 122.117C486.445 121.789 486.664 121.391 486.82 120.922L488.742 116.023ZM487.078 93.6406L492.07 111.383L492.938 119.75H487.641L478.617 93.6406H487.078Z" fill="black"/>
<path d="M1134 0H1348C1356.28 0 1363 6.71573 1363 15V148C1363 156.284 1356.28 163 1348 163H1134V0Z" fill="#71D4CC"/>
<path d="M1234.26 103.786H1262.74V109.357H1234.26V103.786ZM1239.96 114.929H1257.04V120.5H1239.96V114.929ZM1248.5 42.5C1240.95 42.5 1233.71 45.4349 1228.37 50.6592C1223.03 55.8834 1220.03 62.969 1220.03 70.3571C1219.84 74.4057 1220.63 78.4412 1222.34 82.1315C1224.05 85.8219 1226.64 89.0616 1229.88 91.5843C1232.73 94.175 1234.26 95.6514 1234.26 98.2143H1239.96C1239.96 93.0886 1236.8 90.2193 1233.72 87.4614C1231.06 85.4676 1228.94 82.8658 1227.55 79.8838C1226.15 76.9019 1225.53 73.6308 1225.72 70.3571C1225.72 64.4466 1228.12 58.7781 1232.39 54.5988C1236.67 50.4194 1242.46 48.0714 1248.5 48.0714C1254.54 48.0714 1260.33 50.4194 1264.61 54.5988C1268.88 58.7781 1271.28 64.4466 1271.28 70.3571C1271.47 73.6333 1270.84 76.9059 1269.44 79.888C1268.04 82.8701 1265.92 85.4706 1263.25 87.4614C1260.2 90.2471 1257.04 93.0329 1257.04 98.2143H1262.74C1262.74 95.6514 1264.25 94.175 1267.12 91.5564C1270.36 89.0381 1272.94 85.8031 1274.66 82.1176C1276.37 78.4321 1277.16 74.4014 1276.97 70.3571C1276.97 66.6989 1276.24 63.0765 1274.81 59.6967C1273.37 56.3169 1271.28 53.2459 1268.63 50.6592C1265.99 48.0724 1262.85 46.0205 1259.4 44.6205C1255.94 43.2205 1252.24 42.5 1248.5 42.5Z" fill="white"/>
</svg>
